<svg width="31" height="30" viewBox="0 0 31 30" fill="none" xmlns="http://www.w3.org/2000/svg">
<g clip-path="url(#clip0_722_5956)">
<path d="M3.90852 28.6937C3.72584 28.6937 3.57764 28.8419 3.57764 29.0246C3.57764 29.2073 3.72584 29.3555 3.90852 29.3555H27.2521C27.4348 29.3555 27.583 29.2073 27.583 29.0246C27.583 28.8419 27.4348 28.6937 27.2521 28.6937H24.6267C19.1678 19.1817 21.2717 22.1514 20.4879 21.1021C20.9587 20.8609 21.1763 20.4433 21.1845 20.0261C21.197 19.3887 20.7208 18.7523 19.9124 18.7474C19.6498 18.7459 19.3826 18.7428 19.1156 18.7398C17.8328 15.582 18.289 15.3692 17.9649 14.8077L18.1886 14.8083H18.192C18.9122 14.8083 19.9588 13.9652 19.0567 12.8364C18.9943 12.7584 18.8995 12.7127 18.7991 12.7123L17.6272 12.7088C17.3874 12.0837 16.0547 4.51101 16.0462 4.46661C16.0897 4.46515 16.1273 4.46413 16.1727 4.46262C16.3554 4.45616 16.4984 4.30278 16.4924 4.12054C16.4855 3.9383 16.345 3.7987 16.1503 3.80086C16.1374 3.80129 16.1273 3.80156 16.1145 3.80199C16.1229 3.67282 16.0113 3.08886 15.8569 2.72334C15.6476 2.22892 15.2978 1.84639 14.7742 1.71523C14.7748 1.70667 14.779 1.69935 14.779 1.69062C14.7765 1.36764 14.7514 1.2791 14.7488 0.974141C14.7475 0.791467 14.604 0.62818 14.4153 0.645844C14.2327 0.647136 14.0857 0.796637 14.087 0.979311C14.0895 1.30319 14.1142 1.3864 14.1171 1.69288C13.7947 1.74965 13.4779 1.89861 13.2172 2.13568C12.7477 2.56328 12.5987 3.20135 12.5179 3.77609L12.4361 3.77329C12.256 3.76725 12.1004 3.91072 12.0944 4.0934C12.0888 4.27607 12.2318 4.42902 12.4145 4.43505L12.9299 4.4525C12.9235 4.49861 11.8075 12.6463 11.8018 12.6917L10.4521 12.6877C10.4499 12.6877 10.4482 12.6877 10.4465 12.6877C9.1719 12.6877 8.9586 14.0435 9.32715 14.5351C9.44649 14.6946 9.62917 14.7829 9.84157 14.7837L11.1065 14.7875C11.0936 14.8316 10.0371 18.4478 10.0799 18.5937C9.44442 18.5923 8.81925 18.5949 8.21516 18.6048C7.59088 18.6156 7.04027 19.1093 7.01226 19.6819C6.96943 20.5009 7.58878 21.0343 8.27979 21.0343H8.29486C8.57335 21.0312 8.86505 21.0302 9.15336 21.0286C8.27548 23.4368 6.73672 26.709 5.54341 28.6937H3.90852ZM11.6413 28.6937C11.6578 28.4431 11.2702 27.0966 12.4724 25.7997C13.6816 24.4953 15.8429 24.2649 17.3184 25.6277C18.0372 26.5224 18.5933 27.7569 18.7229 28.6937H11.6413ZM16.3073 11.9082C15.8579 11.3914 15.4537 10.9049 14.9966 10.3997L15.8411 9.51386C15.9776 10.2938 16.1339 11.0907 16.3073 11.9082ZM16.1284 12.7044L12.8088 12.6947L14.5386 10.8801C15.1032 11.5069 15.6402 12.1643 16.1284 12.7044ZM14.5432 9.91615C14.2182 9.58204 13.892 9.27722 13.5739 9.0394C13.9498 8.49881 14.2405 7.9678 14.5105 7.44789C14.8685 7.93242 15.2304 8.41312 15.5769 8.83174L14.5432 9.91615ZM13.5778 4.47453C14.2802 4.49722 14.6605 4.49833 15.1869 4.48901C15.1916 4.60018 15.1984 4.63598 15.2195 4.8647C14.9974 5.13455 14.6074 5.83168 14.411 6.20266C14.119 5.81179 13.8277 5.43314 13.5478 5.09902C13.5974 4.29326 13.5845 4.56443 13.5778 4.47453ZM14.072 6.85473C13.8272 7.33232 13.5722 7.82002 13.2614 8.31015C13.3483 7.59976 13.421 6.85894 13.4811 6.07331C13.6763 6.32513 13.8741 6.58751 14.072 6.85473ZM14.8574 6.80422C14.8545 6.80034 14.8516 6.79636 14.8487 6.79248C15.002 6.49563 15.1586 6.20482 15.3269 5.91788C15.3945 6.52498 15.4717 7.13327 15.56 7.74565C15.3268 7.43997 15.0902 7.1197 14.8574 6.80422ZM13.6627 2.62511C14.1719 2.16224 14.91 2.18341 15.2473 2.98098C15.3557 3.23743 15.4096 3.53342 15.4612 3.821C14.5348 3.84357 14.0465 3.82951 13.1852 3.79908C13.2532 3.34396 13.3639 2.89739 13.6627 2.62511ZM13.096 9.51472C13.4125 9.73854 13.7473 10.0448 14.0866 10.395L12.6564 11.8953C12.829 11.1056 12.9727 10.3204 13.096 9.51472ZM9.85665 14.1383C9.74564 13.9755 9.82695 13.3495 10.4469 13.3495H10.4499L18.6328 13.3736C18.9325 13.8024 18.4921 14.1465 18.192 14.1465C18.1916 14.1465 18.1912 14.1465 18.1907 14.1465C17.3386 14.1457 21.2777 14.1496 9.85665 14.1383ZM11.7954 14.7894L16.8117 14.8043C17.1108 16.0254 17.5212 17.5265 17.8482 18.722C15.4558 18.681 13.1992 18.6149 10.7082 18.5984C10.7207 18.554 11.7312 15.0069 11.7954 14.7894ZM8.28711 20.3726C8.28496 20.3726 8.28237 20.3726 8.27979 20.3726C7.93897 20.3726 7.65206 20.1368 7.67317 19.7147C7.68437 19.485 7.94804 19.2713 8.22636 19.2666C11.8638 19.2068 16.2516 19.3874 19.9089 19.4092C20.3457 19.4113 20.5443 19.7273 20.522 20.0313C20.5009 20.3201 20.2805 20.5981 19.8757 20.5862C16.2394 20.4187 11.9344 20.3325 8.28711 20.3726ZM9.8581 21.0255C12.7164 21.0215 15.9399 21.0861 18.8972 21.2071C20.1 23.6053 21.6725 26.2667 22.6118 28.6937H19.3874C19.204 27.1447 17.9676 24.8428 16.5493 24.0808C15.1012 23.3018 13.2189 23.3828 11.8674 24.2811C9.89258 25.5939 9.664 28.2257 10.0126 28.6937H6.31224C7.53107 26.5905 9.0299 23.356 9.8581 21.0255Z" fill="#005428"/>
</g>
<defs>
<clipPath id="clip0_722_5956">
<rect width="30" height="30" fill="white" transform="translate(0.580078)"/>
</clipPath>
</defs>
</svg>
