<svg width="26" height="28" viewBox="0 0 26 28" fill="none" xmlns="http://www.w3.org/2000/svg">
<path d="M25.033 10.9975C24.8136 10.6091 24.4961 10.4817 24.1598 10.5535C23.6802 10.6585 23.5776 11.0892 23.5309 11.5552C23.2243 14.6212 22.3349 15.8952 22.2798 16.0593C21.7276 17.1441 21.3453 17.7721 21.079 18.1265C21.1329 17.034 20.8648 16.0307 20.7269 14.9829C20.701 14.7947 20.6653 14.5375 20.515 14.2878C19.9994 13.5314 18.9723 13.732 18.5354 14.71C18.2723 15.302 18.314 15.8514 18.3783 16.4935C18.513 17.8258 18.3475 17.6847 17.7368 18.6936L17.7366 18.6932C17.179 19.5661 17.1932 20.3512 16.8026 21.275C16.6785 21.2251 16.5555 21.173 16.4291 21.1277C15.978 20.9659 15.4492 21.1578 15.1693 21.5828C14.5649 22.4998 14.7399 22.4034 14.2533 23.1399C13.9547 23.5906 13.6968 23.9795 13.7807 24.3014C13.8138 24.4282 13.8971 24.5313 14.0151 24.5923C15.1447 25.1738 16.3047 26.0839 17.193 26.5131C17.2361 26.5339 17.2819 26.5436 17.3268 26.5436C17.4414 26.5436 17.5514 26.4794 17.6045 26.3694C17.6786 26.2161 17.6144 26.0319 17.4611 25.9576C16.5123 25.4997 15.7351 24.7999 14.4003 24.0979C14.4611 23.9422 14.6478 23.66 14.7672 23.4802C15.4077 22.5132 15.6584 21.5057 16.2208 21.708C17.7374 22.2518 19.078 23.1355 20.1132 24.2713C19.9156 24.5165 19.7153 24.7569 19.5149 24.9973C19.255 25.3091 18.9949 25.6213 18.7411 25.9428C18.6355 26.0764 18.6582 26.2703 18.7919 26.3758C18.9257 26.4814 19.1191 26.4585 19.2247 26.3249C19.2549 26.2865 19.2865 26.2503 19.3169 26.2122L19.5936 26.1509C19.7625 26.1135 19.9222 26.0191 20.0348 25.8837C20.4238 25.4161 20.7518 24.9403 21.1039 24.4501C21.2208 24.2874 21.2093 24.0824 21.0712 23.9702C20.7518 23.7106 20.421 23.449 20.1057 23.1901C24.6151 20.7216 26.5574 16.4163 25.8091 12.3746C25.7044 11.8088 25.5329 11.3075 25.033 10.9975ZM18.2699 19.0059C18.9618 17.9045 19.1343 17.8545 18.9917 16.4317C18.9387 15.9062 18.9069 15.5406 19.0471 15.0745C19.0748 15.0359 19.0903 15.0086 19.0981 14.9617C19.2892 14.535 19.7268 14.2387 19.996 14.6201C20.0671 14.7387 20.0557 14.6603 20.3035 16.2459C20.5997 17.9669 20.4095 18.4218 20.4087 18.6805C20.2569 18.9083 20.4477 19.191 20.7034 19.1551C21.566 19.0399 22.5429 16.8449 22.9576 16.0882C22.9586 16.0862 22.9596 16.0846 22.9607 16.0826C24.1926 13.7361 24.0102 11.2197 24.2906 11.1559C24.5736 11.1016 24.6895 11.9128 24.7267 12.2005C24.7259 12.4322 25.0082 13.6559 24.6504 15.5508C24.0188 18.7921 21.9237 20.566 19.3477 22.7015C19.3403 22.7039 19.334 22.7086 19.3269 22.7116C18.7282 22.2472 18.0692 21.8501 17.368 21.5209C17.7627 20.5906 17.7594 19.8227 18.2699 19.0059Z" fill="#005428"/>
<path d="M15.8889 22.1109C15.4116 22.4203 15.632 23.1158 16.1666 23.1158C16.4888 23.1158 16.7909 22.8393 16.8048 22.5199C16.8278 21.9809 16.1086 21.7772 15.8889 22.1109Z" fill="#005428"/>
<path d="M10.9451 22.3135C10.7137 21.8027 10.1699 21.5041 9.65521 21.6C9.49142 21.631 9.33053 21.6703 9.16895 21.7077C8.87334 20.5697 9.04902 19.6987 8.57022 18.5985H8.56982C8.30596 17.9608 8.00992 17.589 8.04328 16.8964C8.01666 16.7409 8.41419 15.44 8.45444 14.9247C8.6289 13.3763 7.4635 12.3464 6.5365 12.9514C6.05038 13.2604 6.04497 13.6368 5.54662 15.1077C5.48773 15.2479 5.07083 16.4618 4.98148 17.4928C4.57035 16.7851 4.05794 15.2725 3.81751 14.4933C3.53778 13.6661 3.43083 12.8005 3.33631 12.0368C3.21873 11.0841 3.39611 9.17238 3.26528 8.78119C3.08658 8.24696 2.37598 7.99886 1.86495 8.56167C1.21109 8.76629 0.86634 9.39952 0.647398 10.0171C-0.921521 14.4423 0.504229 19.6391 5.13569 23.2225C4.73421 23.4577 4.31465 23.6932 3.90833 23.9284C3.73275 24.0301 3.68304 24.259 3.78555 24.4632C4.65235 26.1896 4.76654 26.4856 5.18239 26.6496L5.54818 26.7939C5.56659 26.8264 5.58613 26.8577 5.60441 26.8903C5.8033 27.2468 6.34162 26.9449 6.14219 26.5893C5.73018 25.8539 5.29382 25.156 4.87781 24.4285C6.25818 23.3177 7.94415 22.5511 9.76979 22.206C10.4839 22.0708 10.5836 23.2714 11.1371 24.4867C11.2405 24.7135 11.4219 25.1116 11.4499 25.2958C9.80855 25.8475 8.79379 26.5057 7.63192 26.8558C7.29472 26.9571 7.36646 27.459 7.72061 27.459C8.16312 27.459 10.1828 26.3614 11.7323 25.8516C12.3638 25.6424 11.9486 24.7807 11.6982 24.2311C11.2788 23.3106 11.4635 23.4587 10.9451 22.3135ZM2.59185 8.87551C2.74083 8.93361 2.71474 9.24122 2.70182 9.46385C2.49194 13.125 3.37264 15.1123 3.33611 15.0046C3.99309 17.0329 4.53367 18.33 5.19767 18.5286C5.45888 18.606 5.68522 18.3312 5.55821 18.09C5.62076 17.7538 5.43201 17.4097 6.11811 15.3385C6.2778 14.9583 6.56874 13.79 6.7482 13.5734C7.2256 13.0695 8.23262 13.5824 7.64275 15.8197C7.23731 17.3561 7.40619 17.4648 8.00074 18.8368C8.00254 18.8405 8.00435 18.8441 8.00636 18.8473C8.39697 19.7469 8.2993 20.8101 8.57223 21.8621C7.69849 22.1114 6.8623 22.4503 6.08528 22.8804C6.08272 22.8787 6.08059 22.8765 6.07795 22.875C2.41536 18.7003 0.344778 15.7372 1.77917 10.2842C2.28689 8.58778 2.53162 8.85192 2.59185 8.87551Z" fill="#005428"/>
<path d="M10.1178 23.6106C10.3388 23.3567 10.2967 22.9697 9.99802 22.7514C9.9002 22.434 9.08552 22.4722 9.01778 23.0636C8.95106 23.645 9.71287 24.0768 10.1178 23.6106Z" fill="#005428"/>
<path d="M15.2643 10.9186C15.0611 10.258 14.4801 10.1938 14.1517 9.74849C13.808 9.28235 13.9901 8.54321 14.4818 8.2371C14.8853 7.98587 15.4214 7.98015 15.8507 8.18151C16.1272 8.52039 16.0493 8.77608 16.1314 9.27041C16.3996 10.8742 18.2026 10.5833 19.3601 8.30683C19.5056 8.02188 19.4046 7.66832 19.1307 7.50217C18.5532 7.15211 18.0853 6.58875 17.8386 5.95962C17.9015 5.37261 18.3639 5.51366 18.7918 5.47862C19.5079 5.42001 20.193 4.56354 19.842 3.49587C19.7283 2.89376 19.2482 1.87734 18.5721 1.44855C18.0489 1.11625 17.2467 1.08053 16.8094 1.59423C16.44 2.02971 16.4747 2.693 16.1894 2.89292C15.5542 3.34277 14.4952 1.67587 14.2195 0.945686C14.0878 0.598042 13.6841 0.437731 13.3642 0.612183C12.8907 0.87144 12.4273 1.1616 11.9865 1.47463C10.972 2.19765 11.2149 3.06337 12.1051 3.51659C12.398 3.66605 12.7038 3.76368 12.8839 3.95925C13.1048 4.19965 13.1112 4.57087 13.0197 4.83254C12.7987 5.46175 11.7458 6.26208 11.0666 5.97632C10.5452 5.75887 10.3527 5.11127 10.2337 4.56244C10.0632 3.77362 9.657 3.37804 8.91694 3.68354C8.20819 3.97771 7.59176 4.50546 7.181 5.16925C6.97331 5.50556 6.98997 5.93177 7.22434 6.28093C8.55113 8.25907 10.1171 10.401 12.1526 13.0216C12.4155 13.36 12.83 13.5179 13.2107 13.4081C13.8404 13.2275 14.4344 12.9113 14.9284 12.4943C15.4807 12.0277 15.5508 11.3808 15.2643 10.9186ZM14.7952 11.6322C14.6771 12.1401 13.5765 12.6619 13.0406 12.8157C12.9063 12.8527 12.75 12.7864 12.6394 12.6436C10.6129 10.0345 9.05499 7.90349 7.73643 5.93739C7.73623 5.93739 7.73623 5.93739 7.73623 5.93739C7.63831 5.79131 7.62647 5.62115 7.70533 5.49312C8.24843 4.61526 9.22237 4.14387 9.40154 4.20045C9.63708 4.27742 9.60753 5.0357 9.97383 5.71947C11.2915 8.18462 14.8307 5.16654 13.3376 3.54187C13.0597 3.23985 12.6822 3.11859 12.3852 2.96757C11.7713 2.65481 11.8243 2.34671 12.3439 1.9771C12.7649 1.67771 13.2077 1.40039 13.6428 1.16361C13.9267 1.915 14.7013 3.1298 15.4373 3.45719C15.8218 3.62896 16.246 3.60608 16.5436 3.39739C17.0659 3.03107 17.0136 2.30612 17.2792 1.99355C17.4961 1.73871 17.9476 1.78205 18.2418 1.96907C18.6423 2.22271 18.8929 2.7039 19.0464 3.04342C19.8246 4.76453 18.2516 4.47836 17.6522 4.71294C17.3861 4.81729 17.1935 5.01434 17.1237 5.25473C16.9713 5.77908 17.5122 7.24292 18.8109 8.0271C18.4531 8.73063 18.0395 9.21864 17.5467 9.51803C16.5676 10.1132 16.8029 8.85587 16.5945 8.25265C16.2399 7.22267 14.9054 6.8014 13.9032 7.56357C13.5302 7.84771 13.2453 8.2675 13.0789 8.77798C12.7414 9.81621 13.2535 10.3048 14.1199 10.7605C14.676 11.0523 14.8716 11.3051 14.7952 11.6322Z" fill="#005428"/>
<path d="M21.5469 7.3155C21.5378 7.3474 21.5382 7.37921 21.5394 7.41071L20.9116 7.14614C20.6889 7.05251 20.4548 7.23838 20.4864 7.47161C20.5679 8.07521 20.7088 8.67279 20.905 9.24789C20.9674 9.42944 21.1782 9.51063 21.3443 9.41885C21.8614 9.13712 22.3992 8.82529 22.7959 8.38463C22.8625 8.31039 22.8892 8.20845 22.8675 8.11133C22.8112 7.85795 22.5591 7.87406 22.0488 7.62542C22.4113 7.29608 22.9582 3.86899 20.7431 1.3891C20.4707 1.08487 20.0123 1.49618 20.2836 1.80006C21.5913 3.2637 22.0871 5.42886 21.5469 7.3155Z" fill="#005428"/>
<path d="M5.10962 2.2793C3.97025 4.12541 3.85006 6.57712 4.80321 8.52556C4.98287 8.89161 5.5363 8.62047 5.35704 8.25426C4.49439 6.49163 4.60335 4.2735 5.63416 2.60277C5.65161 2.57448 5.65984 2.54378 5.66732 2.51313C6.1763 2.89481 6.21217 3.0053 6.39226 3.0053C6.54692 3.0053 6.67612 2.89141 6.69747 2.74003C6.78235 2.13763 6.80864 1.52441 6.77553 0.916798C6.76489 0.724378 6.58124 0.589178 6.39909 0.63306C5.82519 0.764294 5.223 0.918403 4.72154 1.23585C4.55681 1.34018 4.48944 1.58068 4.7681 1.80011C4.88031 1.88847 5.03923 1.99399 5.23699 2.17004C5.18703 2.19472 5.14103 2.22823 5.10962 2.2793Z" fill="#005428"/>
</svg>
