<svg width="31" height="30" viewBox="0 0 31 30" fill="none" xmlns="http://www.w3.org/2000/svg">
<g clip-path="url(#clip0_722_5949)">
<path d="M18.7673 9.6875C18.3923 8.5 20.4548 8.625 21.1423 9.0625C21.5173 10.25 19.4548 10.125 18.7673 9.6875ZM4.95483 13.75C3.39233 13.6875 3.26733 16.3125 4.95483 16.25C6.45483 16.1875 6.70483 13.75 4.95483 13.75ZM9.32983 13.75C7.64233 13.8125 7.76733 16.3125 9.32983 16.25C10.8923 16.25 11.0173 13.625 9.32983 13.75ZM13.7048 13.75C12.2048 13.625 12.0173 16.25 13.7048 16.25C15.3923 16.3125 15.2673 13.875 13.7048 13.75ZM30.5173 16.4375C30.5173 19.25 30.4548 22.0625 30.3923 24.875C30.4548 26.6875 28.6423 27.1875 27.2048 26.6875C27.7048 30.5625 25.7673 28 24.2673 26.875C21.9548 26.25 13.5798 28.25 13.2673 25.375C13.2048 24 13.3923 22.5625 13.4548 21.1875C11.3298 21.125 9.14233 21 7.01733 21.125C5.95483 21.6875 3.76733 24.8125 3.95483 21.8125C4.39233 19.8125 0.892334 22.875 0.767334 18.875C0.767334 17.125 0.579834 15.25 0.579834 13.4375C0.579834 12.375 0.642334 11.375 0.767334 10.375C0.829834 10.1875 0.767334 9.625 1.76733 9.1875C3.32983 8.5625 5.45483 9.125 7.07983 8.875C5.76733 -0.624996 10.6423 5.4375 10.2673 1.9375C10.5798 0.0625039 12.0798 2.8125 13.3923 3.25C13.6423 3.3125 15.5173 3.3125 16.2048 3.3125C23.7673 3.1875 24.9548 1.0625 24.1423 11C24.0173 12.125 24.2673 13.4375 23.8298 14.5C25.9548 14.8125 30.3298 13.125 30.5173 16.4375ZM7.76733 8.8125C10.0798 9.125 17.8298 7.5 18.0798 10.5625C18.2048 11.9375 18.1423 13.375 18.0798 14.75C25.7673 14.3125 22.5798 15.4375 23.1423 5.375C23.5173 3.75 18.1423 4.375 15.7673 4.375C15.3923 4.375 14.3923 4.375 14.1423 4.375C12.7048 4.3125 11.8298 3.5625 11.0173 2.3125C11.5173 4.4375 10.6423 4.5 8.82983 4.3125C7.45483 4.5625 8.26733 7.6875 7.76733 8.8125ZM14.8923 20.125C15.7048 20.1875 17.0173 20.375 16.8298 19.125C16.8923 17.3125 16.9548 15.5625 16.8923 13.75C16.7048 12.5625 17.6423 9.9375 15.7048 10.0625C11.5798 9.9375 7.45483 10 3.39233 10.0625C2.82983 10.0625 1.76733 9.8125 1.82983 10.75C1.57983 13.3125 1.70483 15.9375 1.64233 18.5C1.32983 22.375 5.39233 18.125 4.51733 22.4375C5.20483 21.6875 5.95483 20.875 6.76733 20.3125C9.45483 20.0625 12.2048 20.1875 14.8923 20.125ZM29.2673 22.4375C29.3923 12.3125 30.1423 16.625 18.0173 15.4375C17.8298 17.0625 18.2048 18.9375 17.5798 20.4375C18.5173 21.3125 18.5173 17.8125 20.5173 20.375C22.3298 17.9375 22.4548 20.8125 23.2673 20.1875C24.2048 19.0625 24.8298 19.75 25.5173 20.6875C25.7673 20.5 27.0173 18.9375 27.3298 19.375C27.5798 19.75 26.5173 20.875 26.2673 21.1875C25.5173 22.375 24.8923 21.5 24.2673 20.875C23.0798 21.9375 22.8923 22.1875 21.7673 20.8125C20.8298 22.125 20.0798 22 19.2673 20.75C18.5173 21.75 17.8298 22.0625 17.0173 21C16.2048 21.4375 14.8923 21.1875 14.0798 21.1875C14.2048 22.5 14.2048 23.8125 14.3298 25.125C14.5173 26 15.8298 25.6875 16.4548 25.6875C19.8923 26 24.5173 24.375 26.5798 28C25.4548 23.6875 29.2673 27.9375 29.3923 24.5625C29.3923 24.125 29.2673 22.625 29.2673 22.4375Z" fill="#005428"/>
</g>
<defs>
<clipPath id="clip0_722_5949">
<rect width="30" height="30" fill="white" transform="translate(0.579834)"/>
</clipPath>
</defs>
</svg>
