<svg width="31" height="30" viewBox="0 0 31 30" fill="none" xmlns="http://www.w3.org/2000/svg">
<path d="M29.0288 6.06313C28.5929 5.18902 27.7201 4.4633 26.7697 4.41158C26.4807 4.28338 26.1675 4.21129 25.8419 4.20836C18.8942 3.34582 12.4174 3.72453 7.02724 4.20836C5.74335 4.20836 4.69728 5.24581 4.68306 6.52626C3.95667 11.2672 3.9571 17.4105 4.68306 24.7537C4.68306 25.2413 4.83345 25.6942 5.0874 26.0697C5.46298 27.5981 7.05999 27.9885 8.59427 28.1732C13.324 28.7425 20.181 29.0668 24.8791 28.2378C26.2561 27.9948 28.0266 27.5273 28.5346 26.7371C28.8809 26.1984 29.296 24.4874 29.4654 23.4811C29.9972 20.3217 30.1053 8.2221 29.0288 6.06313ZM9.81001 11.4132C9.85428 11.4107 11.5158 11.3481 11.8009 11.3542C11.7736 12.2237 11.7682 13.1641 11.735 14.0271C11.7257 14.2656 11.9626 14.4327 12.1822 14.3498C12.6419 14.1762 13.5187 14.0456 13.8922 14.6536C14.1369 15.0525 14.0378 15.6453 13.6759 15.9487C13.1737 16.3696 12.6721 16.0627 11.9504 15.8672C11.751 15.8142 11.5548 15.9526 11.5351 16.1546C11.4182 17.3405 11.464 18.6129 11.4937 19.9252C10.8553 19.8375 10.2013 19.7565 9.53557 19.7771C9.70273 19.2489 9.82681 18.6293 9.62863 18.0305C9.38176 17.2868 8.63426 16.7466 7.851 16.7461C7.85014 16.7461 7.84971 16.7461 7.84884 16.7461C7.06645 16.7461 6.31894 17.2847 6.07121 18.0283C5.90017 18.5427 5.99194 19.1997 6.26078 19.7116H4.95139C4.7811 16.695 4.75469 13.9328 4.87427 11.4439L6.42278 11.4335C6.39693 12.0224 6.69894 12.6747 7.19656 12.9961C7.81524 13.3951 8.70449 13.3417 9.26543 12.8725C9.69713 12.511 9.89402 11.944 9.81001 11.4132ZM15.2209 10.8101C14.8031 10.4357 14.7662 9.66533 15.1425 9.25647C15.6788 8.67122 16.9618 8.85006 16.9873 9.96002C16.9938 10.2595 16.8917 10.5408 16.7064 10.7321C16.507 10.9381 16.6473 11.2836 16.9339 11.293L20.4694 11.4015C20.592 12.2588 20.5531 13.4557 20.3496 15.0473C20.3141 15.3258 20.6232 15.5226 20.8614 15.3644C21.3702 15.0254 21.9725 14.9211 22.2625 15.1206C22.4973 15.2817 22.6752 15.7901 22.6089 16.1098C22.5292 16.4954 22.3258 16.8 22.0652 16.9249C21.8553 17.0262 21.3638 16.8969 21.0376 16.8112C20.7932 16.7473 20.6256 16.6727 20.4633 16.8103C20.1802 17.0519 20.5349 17.2901 20.2788 20.1551C19.2337 20.077 18.3346 20.0483 17.491 19.9774C17.1955 19.9492 17.019 20.3006 17.2135 20.5246C17.369 20.7029 17.447 20.9524 17.4268 21.2096C17.3303 22.4534 15.3288 22.4065 15.3368 21.051C15.3389 20.7882 15.4273 20.559 15.5867 20.4052C15.798 20.2006 15.6565 19.8441 15.3652 19.8365L12.1521 19.7548L12.1426 19.301C12.1223 18.416 12.1012 17.5048 12.1602 16.6229C12.7289 16.806 13.4303 17.0188 14.1011 16.4553C14.7103 15.9448 14.8698 14.9814 14.4566 14.3076C14.0219 13.5993 13.1817 13.4433 12.4114 13.5976C12.4334 12.8303 12.4361 12.2463 12.4646 11.3412L14.9943 11.3874C15.3396 11.3664 15.4275 10.9951 15.2209 10.8101ZM21.1272 11.3206C21.9914 11.2484 22.4708 11.1635 23.4326 11.2314C23.7097 11.2472 23.8724 10.9553 23.7415 10.7334C23.353 10.0755 23.7657 8.67681 24.8923 8.81357C25.7859 8.92234 25.8819 9.78585 25.7135 10.6705C25.671 10.8899 25.8571 11.0918 26.0827 11.0604C26.7174 10.9748 27.3553 10.9893 27.9851 11.0925C28.2545 14.4446 28.2732 17.4477 28.0395 20.1396C27.9216 20.1296 27.5647 20.1394 26.8069 20.1403C26.9974 19.4673 26.7962 18.6931 26.2546 18.2252C25.5648 17.6285 24.4623 17.6522 23.798 18.2773C23.2961 18.7495 23.1216 19.4923 23.3051 20.1398C22.5175 20.0808 21.7265 20.0884 20.9413 20.1558C21.0198 19.2551 21.0518 18.3042 21.0277 17.4923C21.4654 17.6031 21.9699 17.7043 22.3512 17.5221C22.8036 17.3049 23.1341 16.8392 23.2568 16.2438C23.3637 15.7289 23.1354 14.9172 22.6373 14.5751C22.2444 14.3041 21.6632 14.2904 21.079 14.5114C21.2229 13.1728 21.2388 12.1207 21.1272 11.3206ZM12.0658 26.8798C12.0558 25.985 12.0398 25.6914 12.0461 25.1543C13.097 25.7849 14.3659 25.1231 14.5514 24.0079C14.647 23.428 14.3842 22.6219 13.7918 22.3315C13.3235 22.1019 12.8155 22.0045 12.3515 22.0502C12.3653 21.4965 12.3859 20.9553 12.3934 20.4231L14.7724 20.4836C14.5625 21.0685 14.6916 21.8112 15.1614 22.2785C15.7659 22.8787 16.8714 22.9235 17.5272 22.3733C18.0051 21.9722 18.2036 21.2941 18.0295 20.6805C18.7396 20.7267 19.4766 20.7555 20.1889 20.8081C20.2152 21.4318 20.2895 22.0519 20.3194 22.6706C19.9105 22.7167 19.5 22.9523 19.1493 23.3517C18.7266 23.8334 18.6706 24.5559 19.0166 25.0699C19.2854 25.4688 19.783 25.6899 20.2449 25.6825C20.2558 26.1041 20.3416 26.5452 20.4285 26.9452C17.7932 27.0882 15.0496 27.0668 12.0658 26.8798ZM21.0975 26.9047C20.984 26.3924 20.8588 25.7857 20.923 25.3211C20.9575 25.0656 20.702 24.8722 20.4668 24.9708C20.1686 25.0957 19.7473 24.9704 19.5654 24.7002C19.3875 24.4357 19.4224 24.0436 19.6464 23.7881C19.7916 23.6236 20.1725 23.2457 20.5926 23.3375C20.8004 23.3805 20.9951 23.2226 20.9924 23.0092C20.9824 22.3099 20.8964 21.6896 20.856 20.8291C22.5882 20.663 23.7215 20.8563 23.8592 20.8563C24.1322 20.8563 24.2884 20.5421 24.1224 20.3247C23.7807 19.877 23.8411 19.145 24.2512 18.759C24.6618 18.373 25.3955 18.3583 25.822 18.7258C26.2481 19.0942 26.3399 19.8223 26.0176 20.2846C25.8656 20.5024 26.0208 20.8046 26.2891 20.8046C26.3335 20.8046 28.0223 20.7963 27.9778 20.7962C27.834 22.1783 27.6225 23.4781 27.3407 24.6981C27.3351 24.7218 27.3326 24.7455 27.3321 24.7696C27.3235 25.6886 26.5687 26.4361 25.6497 26.4361C25.5408 26.4361 23.8208 26.7268 21.0975 26.9047ZM6.9471 20.3733C7.26413 20.3733 7.39966 19.9675 7.14529 19.7775C6.75797 19.488 6.53695 18.725 6.69937 18.2373C6.85706 17.7642 7.3508 17.4079 7.84884 17.4079H7.85014C8.34905 17.4083 8.84365 17.7655 9.00047 18.2385C9.17582 18.7689 8.9897 19.363 8.74757 20.0282C8.66654 20.2508 8.84028 20.4947 9.09569 20.4703C9.97203 20.3719 10.8344 20.5007 11.7285 20.6249C11.7164 21.2154 11.689 21.8837 11.6824 22.4543C11.6797 22.6824 11.9037 22.8449 12.121 22.7709C12.507 22.6374 13.0344 22.6973 13.5006 22.926C13.7918 23.0687 13.9534 23.5667 13.8982 23.8997C13.7999 24.4939 13.1454 24.9428 12.4894 24.6408C12.3561 24.5794 12.2437 24.5016 12.1542 24.3861C11.9962 24.182 11.8131 24.022 11.5855 24.1436C11.3397 24.2749 11.3723 24.4085 11.4033 26.8347C10.0018 26.7367 8.54976 26.6053 7.02724 26.4361C6.09965 26.4361 5.34482 25.6812 5.3431 24.7213C5.19487 23.2186 5.07867 21.7707 4.99111 20.3733H6.9471ZM25.8208 4.87012C26.7564 4.87012 27.5121 5.63218 27.5032 6.56848C27.5032 6.72295 27.7122 7.99038 27.9281 10.4104C27.4311 10.341 26.9297 10.3229 26.4291 10.3594C26.5682 9.00866 25.8965 8.26912 24.9724 8.15654C23.59 7.99246 22.7317 9.32546 22.9759 10.5473C22.2605 10.5311 21.8133 10.5989 21.0451 10.6624C21.0353 10.0442 20.9939 9.3722 20.9252 8.74593C22.4151 9.27147 23.4 8.11874 23.0565 7.02172C22.7824 6.14938 21.7177 5.64843 20.7782 6.17556C20.74 5.59161 20.658 5.01098 20.5445 4.43799C22.2542 4.51433 23.9994 4.64584 25.7798 4.86754C25.7936 4.86926 25.807 4.87012 25.8208 4.87012ZM19.8685 4.41002C20.0402 5.22502 20.1338 6.06103 20.1445 6.89548C20.1483 7.21606 20.568 7.34727 20.7498 7.076C20.951 6.77614 21.3215 6.59519 21.661 6.62449C22.0044 6.65378 22.3258 6.9041 22.4249 7.2199C22.5236 7.53484 22.3922 7.917 22.125 8.08933C21.7166 8.35396 21.1051 8.17133 20.7067 7.89244C20.4679 7.72442 20.1475 7.9273 20.1897 8.21169C20.3045 8.98625 20.374 9.91524 20.3839 10.7365L17.5267 10.6489C17.6116 10.4305 17.6543 10.1905 17.6486 9.94494C17.6105 8.2631 15.6107 7.76843 14.6548 8.8084C14.1997 9.30425 14.1007 10.0823 14.3661 10.714L12.3916 10.6779V8.31681C12.3916 8.01566 12.0199 7.87123 11.8164 8.09364C11.5657 8.36722 11.0052 8.4228 10.6381 8.3013C10.274 8.1811 9.99183 7.83083 9.95219 7.44954C9.91643 7.1053 10.0901 6.75158 10.3654 6.60855C10.5644 6.50601 10.8397 6.49222 11.121 6.57365C11.788 6.76576 11.9866 7.18367 12.3007 6.99371C12.408 6.92866 12.4691 6.80889 12.4588 6.68394C12.3997 5.95211 12.415 5.21062 12.502 4.47865C15.6351 4.32122 17.7665 4.33574 19.8685 4.41002ZM5.34482 6.55254C5.34482 5.62495 6.09965 4.87012 7.05654 4.86883C8.57128 4.73341 10.1692 4.60637 11.8362 4.51245C11.7779 5.04633 11.7509 5.5841 11.766 6.11998C11.0527 5.76856 10.4719 5.80719 10.0603 6.02132C9.54548 6.28887 9.23011 6.9041 9.29387 7.51761C9.40705 8.60635 10.5498 9.33236 11.7298 8.91007V10.6985C10.7722 10.6927 10.1256 10.7856 9.36496 10.7385C9.11521 10.7147 8.92396 10.9999 9.05777 11.2331C9.26414 11.5933 9.1685 12.0905 8.84063 12.365C8.50372 12.6463 7.9264 12.6795 7.55588 12.4403C7.18837 12.203 6.97856 11.6011 7.13236 11.2254C7.22123 11.0073 7.06062 10.7691 6.82604 10.7691C6.78162 10.7691 4.86738 10.7816 4.91181 10.7818C5.0011 9.28652 5.14279 7.88985 5.34095 6.60295C5.34353 6.58614 5.34482 6.56934 5.34482 6.55254Z" fill="#005428"/>
<path d="M3.68918 5.15578L1.72802 4.5763C1.55094 4.52503 1.3687 4.62498 1.31657 4.7999C1.26487 4.97525 1.36525 5.15922 1.54017 5.21135C3.57859 5.80826 3.50585 5.80418 3.59569 5.80418C3.97702 5.80418 4.05355 5.26321 3.68918 5.15578Z" fill="#005428"/>
<path d="M4.24411 4.01353C4.30659 4.11521 4.41516 4.17121 4.52674 4.17121C4.78376 4.17121 4.94351 3.88827 4.80851 3.66714L3.88652 2.16524C3.79087 2.00971 3.58838 1.96189 3.43113 2.05624C3.27559 2.15188 3.22691 2.35567 3.32212 2.51163L4.24411 4.01353Z" fill="#005428"/>
<path d="M6.3712 3.42248C6.53707 3.42248 6.68011 3.2984 6.6995 3.12951L6.87269 1.62891C6.8938 1.44752 6.76326 1.28338 6.58188 1.26227C6.39662 1.24245 6.23592 1.37127 6.21524 1.55308L6.04204 3.05368C6.01927 3.24932 6.17256 3.42248 6.3712 3.42248Z" fill="#005428"/>
</svg>
