<svg width="19" height="24" viewBox="0 0 19 24" fill="none" xmlns="http://www.w3.org/2000/svg">
<path d="M4.91325 19.3333H14.2466V18H4.91325V19.3333ZM4.91325 14H14.2466V12.6667H4.91325V14ZM2.41325 24C1.79103 24 1.27458 23.7947 0.863915 23.384C0.45236 22.9724 0.246582 22.4556 0.246582 21.8333V2.16667C0.246582 1.54444 0.45236 1.02756 0.863915 0.616C1.27458 0.205333 1.79103 0 2.41325 0H12.9132L18.9132 6V21.8333C18.9132 22.4556 18.7079 22.9724 18.2972 23.384C17.8857 23.7947 17.3688 24 16.7466 24H2.41325ZM12.2466 6.66667V1.33333H2.41325C2.19103 1.33333 1.9968 1.41689 1.83058 1.584C1.66347 1.75022 1.57992 1.94444 1.57992 2.16667V21.8333C1.57992 22.0556 1.66347 22.2498 1.83058 22.416C1.9968 22.5831 2.19103 22.6667 2.41325 22.6667H16.7466C16.9688 22.6667 17.163 22.5831 17.3292 22.416C17.4964 22.2498 17.5799 22.0556 17.5799 21.8333V6.66667H12.2466Z" fill="#005428"/>
</svg>
