<svg width="30" height="28" viewBox="0 0 30 28" fill="none" xmlns="http://www.w3.org/2000/svg">
<path d="M2.99994 25.8846C2.82687 25.8269 2.5961 25.8269 2.30764 25.8269C2.19225 25.8269 2.01917 25.8269 1.90379 25.8269C1.78841 25.8269 1.78841 25.8269 1.78841 25.8269C1.78841 25.8846 1.73071 25.6538 1.78841 25.4231C1.8461 25.1923 1.8461 24.9615 1.90379 24.7885C1.96148 23.9808 1.73071 23.8654 1.32687 24.6154C1.26917 24.7308 1.15379 24.9615 1.0961 25.1923C1.03841 25.3077 0.980713 25.4808 0.980713 25.6538V26C1.03841 26.1154 1.0961 26.2885 1.21148 26.4038C1.38456 26.6346 1.78841 26.6346 1.90379 26.6346C2.01917 26.6346 2.19225 26.6346 2.30764 26.5769C2.53841 26.5769 2.76917 26.5192 2.99994 26.4615C3.40379 26.4038 3.63456 26.2885 3.63456 26.1731C3.63456 26.0577 3.3461 25.9423 2.99994 25.8846Z" fill="#005428"/>
<path d="M15.8652 1.07687C15.8076 1.01917 15.6922 0.90379 15.5768 0.846098C15.5191 0.788405 15.346 0.730713 15.1729 0.730713C14.9999 0.730713 14.8845 0.788405 14.7114 0.90379C14.596 0.961482 14.5383 1.07687 14.4806 1.13456C14.4229 1.19225 14.3076 1.30764 14.2499 1.42302C14.0768 1.65379 13.9037 1.82687 13.7883 1.99994C13.2691 2.74994 13.4999 2.92302 14.1922 2.40379C14.3652 2.28841 14.5383 2.11533 14.7691 1.94225C14.8845 1.82687 14.9999 1.76917 15.0576 1.65379C15.1152 1.5961 15.1152 1.5961 15.1729 1.53841C15.2306 1.48071 15.1729 1.53841 15.1729 1.53841C15.1729 1.53841 15.2306 1.5961 15.2883 1.5961C15.346 1.65379 15.4037 1.76917 15.5191 1.88456C15.6922 2.11533 15.8076 2.28841 15.9229 2.46148C16.4999 3.15379 16.7306 3.0961 16.4422 2.17302C16.3845 1.94225 16.2691 1.71148 16.1537 1.48071C16.096 1.36533 16.0383 1.19225 15.8652 1.07687Z" fill="#005428"/>
<path d="M28.2114 24.9615C28.3268 24.7884 27.5768 23.9807 26.4807 23.2307C25.9037 22.8269 25.3845 22.5384 24.9807 22.3076C25.4422 20.923 25.096 19.3653 25.0383 18.2115C24.923 16.7115 24.7499 15.4423 24.6345 14.4615C24.6345 14.4038 24.6345 14.3461 24.6345 14.3461C24.5768 14.0576 24.4614 12.673 24.346 12.3846C24.346 12.3846 24.5191 12.2115 24.346 11.923C24.173 11.6346 23.8268 11.4038 23.3653 11.173C22.4422 10.7115 21.1153 10.0769 19.3845 9.38457C18.5191 9.03841 17.596 8.69226 16.5576 8.34611C16.2114 8.23072 15.8076 8.17303 15.4614 8.11534C15.5768 7.59611 15.6345 6.49995 15.6345 5.17303C15.5768 3.38457 15.346 1.94226 15.1153 1.94226C14.8845 1.94226 14.7691 3.38457 14.7691 5.17303C14.8268 6.44226 14.9422 7.53842 15.0576 8.05765C14.9422 8.05765 14.8845 8.05765 14.7691 8.05765C14.1345 8.11534 13.5576 8.28841 12.9807 8.51918C11.8268 8.98072 10.7307 9.55765 9.51912 10.0769C7.3845 11.0576 7.78835 10.8846 6.74988 11.3461C6.57681 11.4038 6.46142 11.4615 6.23065 11.5769C6.05758 11.6923 5.82681 11.8653 5.71142 12.1538C5.65373 12.3269 5.65373 12.5 5.71142 12.673C5.76912 12.8461 5.82681 12.9038 5.94219 13.0192C5.71142 14.8076 5.59604 19.3653 5.53835 20.923C5.53835 21.5 5.59604 22.1346 5.8845 22.6538C5.8845 22.7115 5.94219 22.7692 5.99988 22.8269C5.59604 22.9423 4.78835 23.3461 3.92296 23.923C2.76912 24.7307 1.90373 25.4807 2.01912 25.7115C2.1345 25.8846 3.17296 25.423 4.3845 24.6153C5.24988 24.0384 5.94219 23.4615 6.17296 23.1153L6.51912 23.4615C7.03835 23.8653 7.55758 24.1538 8.1345 24.3846C12.346 26.4038 11.0768 25.8269 13.3845 26.8653C14.0191 27.1538 14.7691 27.4423 15.6345 27.2692C17.1345 26.8653 18.2883 26.173 19.4999 25.5961C20.7114 25.0192 21.8653 24.5 22.9614 23.9807C23.4807 23.75 24.1153 23.5769 24.6345 23.0576C24.6922 23 24.7499 22.9423 24.8076 22.8846C25.096 23.173 25.5576 23.5769 26.0768 23.923C27.0576 24.673 28.0383 25.1346 28.2114 24.9615ZM6.6345 12.5C6.74989 12.4423 6.92296 12.3269 7.03835 12.2692C8.24988 11.6923 7.32681 12.1538 9.80758 11C11.0191 10.423 12.1153 9.9038 13.2114 9.38457C14.423 8.86534 15.1153 8.74995 16.3268 9.09611C17.3076 9.38457 18.2883 9.73072 19.1537 10.0192C20.8845 10.5961 22.2691 11.173 23.1922 11.5192C23.6537 11.6923 23.9999 11.8653 24.173 12.0384C24.2883 12.1538 24.2883 12.2692 24.2883 12.3269C24.2883 12.3846 24.2883 12.3846 24.2307 12.4423C24.173 12.5 24.1153 12.5576 23.9999 12.673C23.7691 12.8461 23.423 13.0192 22.9614 13.1923C21.9807 13.5961 20.7114 14.2884 18.9807 14.9807C18.5768 15.1538 18.1153 15.3269 17.6537 15.5C17.423 15.5576 17.1922 15.673 16.9614 15.7307C16.846 15.7884 16.7307 15.7884 16.6153 15.8461C16.4999 15.9038 16.3845 15.9038 16.2691 15.9038C15.2883 16.0192 14.1345 15.7884 13.0383 15.5C11.8845 15.1538 10.7307 14.6923 9.51912 14.173C8.94219 13.8846 8.30758 13.6538 7.67296 13.3653C7.3845 13.25 6.98065 13.0769 6.74988 12.9615C6.6345 12.9038 6.51912 12.8461 6.46142 12.7307C6.40373 12.673 6.40373 12.673 6.40373 12.673C6.46142 12.6153 6.51912 12.5576 6.6345 12.5ZM14.6537 26.4038C14.3076 26.3461 14.0191 26.2307 13.673 26.0576C11.4807 25.0192 12.1153 25.3653 8.36527 23.6346C7.84604 23.4038 7.26912 23.1153 6.86527 22.8269C6.46142 22.5384 6.28835 22.0769 6.17296 21.6153C6.05758 21.1538 6.11527 20.6346 6.11527 20.1153C6.11527 18.5576 6.11527 14.9807 5.99988 13.423C6.11527 13.5384 6.23065 13.5961 6.34604 13.6538C6.69219 13.8269 6.98065 13.9423 7.32681 14.0576C7.96142 14.3461 8.53835 14.5769 9.17296 14.8653C10.3845 15.3846 11.596 15.8461 12.8076 16.1923C13.4422 16.3653 14.0191 16.4807 14.6537 16.5961C14.4807 17.3461 14.3653 19.3076 14.3653 21.6153C14.423 23.6923 14.5383 25.5384 14.6537 26.4038ZM23.5383 21.5C23.6537 21.673 24.0576 21.673 24.4614 21.4423C24.4614 21.6153 24.4037 21.7884 24.346 21.9615C24.346 22.0192 24.2883 22.0769 24.2883 22.1346H24.2307V22.25C24.173 22.3653 24.1153 22.423 24.0576 22.5384C23.7691 22.8269 23.3076 23 22.7883 23.173C22.846 23 22.846 22.8269 22.7883 22.5961C22.673 22.1923 22.3845 21.9038 22.2114 22.0192C22.0383 22.1346 21.923 22.4807 22.0383 22.8269C22.096 23.0576 22.2691 23.2884 22.3845 23.3461C21.9807 23.5192 21.6345 23.6923 21.2307 23.8653C21.2307 23.8076 21.2307 23.6923 21.173 23.6346C21.0576 23.0576 20.7691 22.5961 20.5383 22.6538C20.3076 22.7115 20.2499 23.2307 20.3653 23.8076C20.423 23.9807 20.423 24.0961 20.4807 24.2115C20.0768 24.3846 19.6153 24.6153 19.1537 24.7884C19.2114 24.6153 19.2114 24.4423 19.2114 24.2692C19.2114 23.6923 19.0383 23.2307 18.8076 23.2307C18.5768 23.2307 18.4037 23.6923 18.4037 24.2692C18.4037 24.6153 18.4614 24.9038 18.5768 25.0769C17.596 25.5384 17.423 25.5961 17.3076 25.6538C17.3653 25.4807 17.3653 25.1923 17.3653 24.9038C17.3076 24.2692 17.1345 23.8076 16.9037 23.8076C16.673 23.8076 16.4999 24.3269 16.5576 24.9615C16.5576 25.3653 16.673 25.6538 16.7883 25.8846C16.3268 26.0576 15.8653 26.2307 15.4614 26.3461C15.346 26.3461 15.173 26.4038 14.9999 26.3461C15.1153 25.4807 15.2307 23.6346 15.2307 21.5C15.2307 19.1923 15.1153 17.2307 14.9422 16.4807C15.4037 16.5384 15.8653 16.5384 16.3845 16.423C16.4999 16.423 16.673 16.3653 16.7883 16.3653C16.9037 16.3076 17.0768 16.25 17.1922 16.25C17.4807 16.1923 17.6537 16.0769 17.9422 15.9615C18.4037 15.7884 18.8653 15.5576 19.2691 15.3846C20.9422 14.6346 22.2114 13.8269 23.1345 13.3653C23.596 13.1346 23.9422 12.9038 24.1153 12.673C24.173 12.6153 24.173 12.5576 24.2307 12.5576V14.173C24.0576 14.173 23.8268 14.2884 23.596 14.4038C23.1922 14.5769 22.846 14.8076 22.846 15.0384C22.846 15.2692 23.3653 15.3846 23.9422 15.1538C24.0576 15.0961 24.173 15.0384 24.2883 14.9807C24.2883 15.5 24.346 16.0769 24.346 16.6538C24.173 16.6538 23.9999 16.7115 23.8268 16.8269C23.423 17.0576 23.1922 17.4038 23.3076 17.6346C23.423 17.8076 23.8268 17.8076 24.2307 17.5769C24.2883 17.5769 24.2883 17.5192 24.346 17.4615C24.346 17.6923 24.346 17.9807 24.4037 18.2115V18.673C24.2307 18.673 23.9999 18.7307 23.7691 18.7884C23.2499 18.9615 22.9037 19.25 22.9037 19.423C22.9614 19.6538 23.4807 19.7115 23.9999 19.5384C24.173 19.4807 24.2883 19.423 24.4037 19.3076C24.4037 19.7115 24.4614 20.0576 24.4614 20.4615C24.346 20.4615 24.173 20.5192 23.9999 20.6346C23.6537 20.9807 23.423 21.3269 23.5383 21.5Z" fill="#005428"/>
<path d="M29.0191 25.0192C28.9614 24.7884 28.9614 24.5576 28.9037 24.3845C28.7884 24.0384 28.673 23.8076 28.5576 23.8076C28.4422 23.8076 28.3268 24.0384 28.3268 24.3845C28.3268 24.5576 28.2691 24.7884 28.2691 25.0192V25.1922H28.2114C28.1537 25.1922 28.096 25.1922 28.0384 25.1922C27.923 25.1922 27.8076 25.1345 27.6922 25.1345C27.4614 25.0768 27.2307 25.0768 27.0576 25.0768C26.3076 25.0768 26.1922 25.3076 26.9422 25.6538C27.1153 25.7115 27.2884 25.8268 27.5191 25.8845C27.6345 25.9422 27.7499 25.9422 27.923 25.9999H28.1537H28.4999C28.7884 25.9422 28.9614 25.7692 29.0768 25.5384C29.1345 25.423 29.1345 25.3076 29.1345 25.1922C29.0191 25.1345 29.0191 25.0768 29.0191 25.0192Z" fill="#005428"/>
</svg>
