<svg width="29" height="29" viewBox="0 0 29 29" fill="none" xmlns="http://www.w3.org/2000/svg">
<path d="M4.80171 18.3332C4.92018 19.5443 5.50432 20.6622 6.43097 21.451C7.35762 22.2398 8.55437 22.638 9.7689 22.5616C11.667 25.0783 18.5204 24.1115 19.601 27.5589C20.0746 28.4273 21.4354 28.1626 22.232 28.1982C24.3128 27.8785 23.5965 25.8406 23.5799 23.8731C24.7626 23.6167 25.8004 22.9132 26.4767 21.9096C27.1529 20.906 27.4152 19.6799 27.2088 18.4875C29.6123 16.3366 28.9381 12.1421 26.0031 10.8495C30.8477 7.72362 28.6694 0.10189 22.8272 0.0732733C18.5573 0.0284701 11.0641 -0.871779 10.471 5.10409C10.4355 5.13757 10.3996 5.16853 10.3647 5.20386C7.0999 2.74957 2.38661 5.56012 2.9441 9.5883C-1.02428 11.8545 0.279146 17.8898 4.80171 18.3332ZM16.2648 1.01072H22.8273C29.3566 1.28119 29.3552 10.5847 22.8273 10.8545C16.3726 10.3083 20.322 12.4139 15.5738 13.4997C15.9455 12.948 16.9557 10.939 15.963 10.8387C9.77385 10.5671 10.0719 0.903692 16.2648 1.01072ZM3.15114 10.5826C4.16416 14.5177 7.84021 13.428 5.85053 12.4268C0.862562 10.1753 5.86666 2.3137 10.4228 6.31203C10.5107 7.63984 11.0477 8.89825 11.9456 9.88039C12.8435 10.8625 14.0488 11.5099 15.3635 11.7162C15.3372 12.856 13.9821 13.355 13.6988 14.2432C14.0716 15.0328 18.1377 14.6375 19.5401 11.7919C20.9682 11.7425 23.6889 12.0053 24.9888 11.3737C28.7424 13.0718 28.3186 16.8291 25.8666 18.2513C25.0908 18.609 24.2355 18.7591 23.3843 18.687C24.5436 16.9105 21.2168 20.3609 19.8384 18.2925C17.5508 17.8413 20.1723 21.3814 22.7946 19.3469C23.6823 20.1174 25.2284 19.6585 26.1411 19.115C26.1487 19.1785 26.1614 19.2426 26.1631 19.3057C26.2238 19.2723 26.282 19.2343 26.337 19.1921C26.3562 22.5468 23.985 22.1549 22.5964 23.5429C22.8257 25.8193 23.1484 27.606 21.3524 27.3191C24.0169 23.7762 21.0673 24.2066 20.8357 27.1966C20.6942 27.1538 20.5462 27.1048 20.3846 27.043C20.3553 26.9979 20.3203 26.9471 20.2864 26.8973C21.5047 24.6632 21.2652 22.9059 19.7663 26.215C19.6727 26.1039 19.5714 25.9903 19.4624 25.8741C21.0423 23.4642 20.0492 22.2995 18.9614 25.3836C18.4682 25.0662 18.0737 24.617 17.8226 24.0869C17.5715 23.5569 17.4738 22.9671 17.5405 22.3844C17.9946 22.6587 19.1029 22.0853 18.395 21.6594C18.0376 21.5702 17.7048 21.4022 17.4207 21.1678C17.1367 20.9333 16.9086 20.6383 16.7533 20.3043C16.2777 19.5242 17.2023 18.9991 17.1438 18.2412C16.9085 17.7042 16.2587 18.1688 16.0683 18.5199C15.2178 19.5805 15.6801 21.0897 16.6775 21.8781C16.5756 22.602 16.6322 23.3393 16.8435 24.0391C14.6144 23.1728 10.1217 23.9478 10.1119 20.4469L10.1332 20.6054C9.83492 18.1568 8.19042 19.8945 9.22107 21.3636C9.2384 21.4547 9.26681 21.5433 9.30567 21.6275C8.41568 21.5883 7.56868 21.2337 6.91624 20.6271C6.26381 20.0205 5.84852 19.2015 5.7447 18.3167C6.77246 18.4204 7.80228 18.1405 8.63611 17.5308C9.96797 19.0593 14.7332 17.2461 12.1736 16.7714C10.5752 17.7145 8.88488 16.9736 7.85933 15.608C6.98911 15.4556 7.69346 16.6029 7.97375 16.9C4.25781 19.1401 -1.46347 13.9537 3.15114 10.5826Z" fill="#005428"/>
<path d="M15.093 4.29202H16.0305C15.7353 6.16663 17.2639 6.16228 16.968 4.29202C18.8426 4.5872 18.8383 3.05867 16.968 3.35452C17.2632 1.4799 15.7346 1.48427 16.0305 3.35452H15.093C14.9703 3.35692 14.8534 3.40735 14.7674 3.495C14.6815 3.58265 14.6333 3.70051 14.6333 3.82327C14.6333 3.94604 14.6815 4.0639 14.7674 4.15155C14.8534 4.23919 14.9703 4.28963 15.093 4.29202Z" fill="#005428"/>
<path d="M21.1865 4.292C21.6452 4.26196 25.9697 4.61478 23.999 3.3545C23.5403 3.38455 19.2159 3.03169 21.1865 4.292Z" fill="#005428"/>
<path d="M21.1865 8.51075C21.6452 8.48071 25.9697 8.83353 23.999 7.57325C23.5403 7.6033 19.2159 7.25044 21.1865 8.51075Z" fill="#005428"/>
<path d="M16.4994 7.37914C15.3827 5.84495 14.305 6.92885 15.8365 8.04198C14.3024 9.15867 15.3863 10.2364 16.4994 8.70482C17.6161 10.239 18.6938 9.15509 17.1622 8.04198C18.702 6.89624 17.6404 5.84243 16.4994 7.37914Z" fill="#005428"/>
<path d="M22.124 6.63569C22.1259 6.75881 22.176 6.87626 22.2638 6.96268C22.3515 7.04909 22.4697 7.09753 22.5928 7.09753C22.7159 7.09752 22.8341 7.04908 22.9218 6.96266C23.0095 6.87624 23.0597 6.75878 23.0615 6.63566C23.0597 6.51255 23.0095 6.39509 22.9218 6.30868C22.8341 6.22226 22.7159 6.17382 22.5928 6.17383C22.4696 6.17383 22.3514 6.22228 22.2637 6.3087C22.176 6.39512 22.1258 6.51257 22.124 6.63569Z" fill="#005428"/>
<path d="M22.5928 8.97949C22.4701 8.98195 22.3532 9.03242 22.2673 9.12006C22.1814 9.20771 22.1333 9.32554 22.1333 9.44826C22.1333 9.57098 22.1814 9.68881 22.2673 9.77645C22.3532 9.86408 22.4701 9.91454 22.5928 9.91699C22.7155 9.91453 22.8323 9.86407 22.9182 9.77642C23.0041 9.68878 23.0522 9.57095 23.0522 9.44823C23.0522 9.3255 23.0041 9.20768 22.9182 9.12004C22.8323 9.0324 22.7154 8.98194 22.5928 8.97949Z" fill="#005428"/>
<path d="M1.16858 3.63577C1.33943 4.54459 3.86556 5.81244 2.98101 4.12255C2.28252 3.59263 0.493548 0.984777 1.16858 3.63577Z" fill="#005428"/>
<path d="M4.02317 3.8418C4.34011 4.00931 4.61197 3.66418 4.48878 3.36192L4.49585 3.41608C4.47007 3.25405 4.42252 3.09624 4.35449 2.94693C4.35777 2.9569 4.33891 2.90634 4.33406 2.89807C4.33721 2.90416 4.34245 2.91675 4.34734 2.92891C3.74859 -0.532462 2.20868 2.82172 4.02317 3.8418Z" fill="#005428"/>
<path d="M5.7415 3.5136C6.57681 3.52792 6.9824 1.71343 7.1604 0.997584C6.64279 -0.529209 5.01182 3.25155 5.7415 3.5136Z" fill="#005428"/>
</svg>
