<svg width="31" height="30" viewBox="0 0 31 30" fill="none" xmlns="http://www.w3.org/2000/svg">
<g clip-path="url(#clip0_722_6056)">
<path d="M26.7606 19.4137C26.8929 19.0682 26.9449 18.7582 26.9704 18.4958C27.016 17.9691 26.9732 17.6216 26.9455 17.3856C26.8788 16.9158 26.8144 16.8863 26.753 16.8881C26.6895 16.8899 26.6351 16.9295 26.5933 17.3926C26.5675 17.6221 26.5558 17.9615 26.4694 18.425C26.4244 18.6556 26.3568 18.9163 26.2307 19.1889C26.104 19.461 25.9051 19.7496 25.636 20.0694C25.4621 20.2695 25.2733 20.4878 25.0721 20.7211C24.9801 20.6954 24.8392 20.6803 24.614 20.6812C24.3305 20.6775 23.9163 20.6979 23.3067 20.6895C21.4973 20.6637 19.6153 20.0251 18.6026 21.9839C17.7997 23.5607 18.0047 27.506 18.1901 27.5096C18.4363 27.5159 18.5807 23.6628 19.3334 22.3856C19.9931 21.2844 20.9216 21.4558 22.1761 21.5213C22.6171 21.5467 22.9993 21.5422 23.3257 21.5231C23.8569 21.4919 24.2416 21.4265 24.5223 21.3605C20.3221 26.2563 20.1784 26.5793 19.4104 27.1623C19.0409 27.4429 18.6094 27.6675 18.1234 27.8309C16.484 28.3779 11.6411 28.4359 10.6678 28.3708C9.96808 28.3176 9.24135 28.219 8.59262 27.9598C7.66749 27.581 7.18191 27.092 7.16997 25.2754C7.16394 24.8078 7.19254 24.3155 7.19672 23.7827C7.22504 16.5398 7.15471 19.4218 7.49181 12.5096C7.51103 12.1741 7.50881 11.8598 7.51125 11.5456C7.51631 10.617 7.52854 8.98169 8.16521 8.48731L8.32396 8.36584C8.78263 8.06614 9.37235 7.89996 9.96581 7.78842C9.96973 7.78771 9.97373 7.78728 9.97765 7.78663C9.98658 7.95438 9.96473 8.13645 9.90533 8.32667C9.68665 9.04988 9.08596 9.70574 9.16932 10.6663C9.23022 11.3686 9.70658 11.888 10.5888 11.9196C11.4437 11.9437 12.1801 11.5525 12.8868 11.0685C13.2091 10.8443 13.5066 10.6196 13.8055 10.3948C13.8427 10.3671 13.8786 10.3385 13.9156 10.3106C14.0418 10.5722 14.2929 10.9769 14.6613 11.4322C15.5524 12.5283 16.7588 13.3967 17.1153 13.536C17.8372 13.8167 18.5258 13.1218 18.2813 12.2445C18.0835 11.561 17.0994 10.1876 16.4152 9.45259C16.1269 9.14514 15.8885 8.92942 15.6963 8.77442C16.0986 8.36584 16.449 7.95113 16.7143 7.53706C16.7387 7.50011 16.7599 7.46263 16.7833 7.42552C16.9742 7.41684 17.166 7.40707 17.3544 7.40148C18.6948 7.36282 22.8955 7.33356 24.06 7.57819C24.5399 7.67509 24.9736 7.86676 25.2841 8.17899C26.5112 9.38585 26.5865 13.6467 26.6397 15.5192C26.6677 16.4024 26.723 16.8898 26.753 16.8881C26.7854 16.8865 26.7911 16.3995 26.8221 15.5192C26.8874 13.4969 26.9641 9.2499 25.6178 7.84902C25.2381 7.44689 24.7037 7.20384 24.1696 7.08415C22.9024 6.7894 18.7119 6.74547 17.3411 6.76167C17.2775 6.76248 17.2123 6.76514 17.1481 6.76666C17.2388 6.57645 17.3198 6.38586 17.3852 6.19581C17.4532 5.96588 17.5285 5.76232 17.5671 5.50771C17.6018 5.26172 17.6127 4.98845 17.5017 4.69581C17.4462 4.55187 17.3527 4.40891 17.2334 4.30149C17.1134 4.19206 16.9772 4.12099 16.8544 4.07721C16.6064 3.99111 16.4037 3.98335 16.2389 3.96875C15.435 3.90633 14.6186 3.91741 13.8298 4.00847C13.4358 4.05849 13.1689 4.07699 12.9671 4.04579C12.7908 4.02089 12.6601 3.96176 12.5671 3.90734C12.6552 3.76405 12.7288 3.63092 12.7849 3.50727C12.9826 3.07531 12.9881 2.80127 12.9618 2.6696C12.9322 2.53402 12.8711 2.52002 12.8101 2.5115C12.7475 2.50272 12.6891 2.50673 12.6165 2.59978C12.5399 2.69212 12.4568 2.87029 12.2291 3.19011C12.1165 3.34972 11.9561 3.54764 11.7507 3.78782C10.3485 5.41379 8.14241 6.47801 7.35763 6.11187C7.2334 6.05122 7.13629 5.95373 7.08541 5.79324C6.65691 4.47733 9.39891 1.44555 11.1619 1.20709C11.6203 1.15045 12.0425 1.27648 12.3124 1.48004C12.5775 1.69352 12.6879 1.97548 12.726 2.17806C12.7693 2.38146 12.7733 2.50787 12.8101 2.5115C12.8256 2.51351 12.8428 2.48519 12.8616 2.42709C12.8771 2.36876 12.9099 2.28174 12.9079 2.16396C12.9267 1.93604 12.8638 1.55355 12.5497 1.21967C10.8334 -0.50957 6.84658 2.54422 6.24831 4.96241C6.16651 5.29655 6.1286 5.66607 6.23567 6.04628C6.33686 6.42752 6.63005 6.76574 6.96824 6.92361C7.65684 7.24827 8.45393 7.04407 9.1613 6.75423C9.21385 6.73286 9.26398 6.71029 9.31497 6.68815C9.35918 6.71946 9.40943 6.75679 9.46503 6.80415C9.54262 6.87023 9.63077 6.96083 9.71257 7.0727C9.10265 7.18821 8.47944 7.3539 7.90042 7.71799L7.67775 7.88249C6.77553 8.57829 6.71836 10.1774 6.69555 11.5367C6.69022 11.8514 6.68825 12.1649 6.66864 12.4538C6.65048 12.7658 6.63237 13.0768 6.61432 13.3866C6.28907 19.0451 6.35263 16.8953 6.29641 23.778C6.2732 26.1696 6.05124 27.8944 8.25564 28.7985C9.06024 29.1153 9.85234 29.2107 10.605 29.2689C11.4735 29.3247 16.5301 29.2908 18.4027 28.6489C20.0128 28.095 20.5688 27.5258 26.137 20.4675C26.4075 20.1136 26.6275 19.7594 26.7606 19.4137ZM17.4303 12.4967C17.493 12.6932 17.4778 12.8167 17.2731 12.7061C17.1619 12.6424 17.0359 12.5719 16.9203 12.4998C16.313 12.1344 15.6763 11.6641 15.0321 11.0821C14.6173 10.706 14.2964 10.3719 14.0886 10.1782C14.4748 9.8806 14.8453 9.57396 15.1896 9.26102C15.3364 9.44597 15.5333 9.6823 15.7845 9.99811C16.1932 10.5158 17.2743 12.0204 17.4303 12.4967ZM9.48319 6.61307C9.71644 6.50468 9.93409 6.38955 10.1352 6.27095C10.9776 5.76913 11.7179 5.10309 12.2721 4.3449C12.3927 4.46594 12.5653 4.58709 12.8146 4.66727C13.1137 4.76629 13.493 4.77431 13.8853 4.75685C14.6398 4.73227 15.3845 4.74819 16.1612 4.8296C16.3228 4.84517 16.465 4.86465 16.5514 4.89969C16.6381 4.93859 16.6471 4.95248 16.6751 5.01656C16.8267 5.40333 16.2945 6.52852 15.9584 7.03945C15.1699 8.27615 12.013 11.1824 10.5971 11.2213C8.96803 11.2509 10.2228 8.92681 10.324 8.43056C10.3869 8.13575 10.3825 7.83546 10.3087 7.57868C10.1544 7.06463 9.8089 6.78045 9.56649 6.65257C9.53737 6.63754 9.50978 6.62463 9.48319 6.61307Z" fill="#005428"/>
</g>
<defs>
<clipPath id="clip0_722_6056">
<rect width="30" height="30" fill="white" transform="translate(0.580078)"/>
</clipPath>
</defs>
</svg>
