<svg width="31" height="30" viewBox="0 0 31 30" fill="none" xmlns="http://www.w3.org/2000/svg">
<path d="M19.3175 18.6867C21.271 18.0474 22.8159 16.0568 23.1618 13.7335C23.4865 11.5535 22.7655 9.17002 21.28 7.51375C19.2208 5.2174 15.8528 4.35801 12.8071 5.57122C6.94647 7.52647 5.63305 15.5088 11.508 18.9226C11.6505 19.7708 11.6844 20.74 11.8268 21.5882C11.9158 21.6382 11.9844 21.6568 12.0484 21.6668C12.1038 21.7186 12.1775 21.7504 12.2584 21.7504H12.2648C18.6736 21.5877 18.4944 21.7049 18.6608 21.5297C18.8126 21.3703 18.7105 21.2591 18.7346 20.3438C18.7388 20.1844 18.7442 19.9754 18.7416 19.4316C18.74 19.0908 18.965 18.7987 19.3175 18.6867ZM18.1252 19.4348C18.1299 20.4036 18.1033 20.3011 18.1208 21.0156L12.5365 21.1284C12.4705 20.5533 12.4138 20.3152 12.428 19.155C12.434 18.6686 12.1898 18.2232 11.7756 17.9643C11.4661 17.7671 11.3651 17.703 11.2533 17.6344C9.74929 16.709 8.74297 14.8107 8.68939 12.798C8.58504 8.85906 11.7341 5.58083 15.7297 5.63594C20.0508 5.69011 23.1609 9.55637 22.5522 13.6428C22.2398 15.741 20.8628 17.5325 19.1283 18.1C18.5253 18.2918 18.1222 18.828 18.1252 19.4348Z" fill="#005428"/>
<path d="M18.5217 24.3141C18.5864 23.7829 18.6301 23.2377 18.6926 22.7269C18.7162 22.5321 18.5525 22.3655 18.3654 22.3821C16.3374 22.5226 14.2792 22.5459 12.2485 22.4504C12.1209 22.4346 11.9633 22.5262 11.9355 22.7147C11.8751 22.7938 11.8127 22.8717 11.7646 22.9587C11.9028 24.146 11.7777 24.565 12.2727 24.6478C12.3164 24.6768 12.366 24.6975 12.4209 24.701C14.3351 24.8281 16.3593 24.797 18.2502 24.583C18.392 24.567 18.5042 24.4558 18.5217 24.3141ZM17.9379 23.9967C16.2911 24.1676 14.4466 24.2038 12.6892 24.1002C12.6286 23.8089 12.5852 23.4677 12.5596 23.0808C14.3806 23.1559 16.2205 23.1346 18.0387 23.0214C18.0034 23.3517 17.9751 23.6599 17.9379 23.9967Z" fill="#005428"/>
<path d="M12.8408 25.3162C12.6789 25.299 12.5102 25.4447 12.5173 25.6353C12.5388 26.2292 12.5988 26.7313 12.6955 27.1274C12.7091 27.1836 12.7384 27.2349 12.78 27.2751C14.4835 28.9341 16.3164 28.8166 17.9378 27.1687C18.0478 27.056 18.0339 26.9377 18.0949 26.287C18.1168 26.0562 18.1385 25.8251 18.1644 25.5987C18.1857 25.4128 18.0391 25.2481 17.8353 25.2564C16.1796 25.3796 14.4999 25.4001 12.8408 25.3162Z" fill="#005428"/>
<path d="M6.91923 20.6616C7.15046 20.6616 7.09966 20.5626 8.67604 19.017C8.79583 18.8962 8.79503 18.7012 8.67403 18.5812C8.55263 18.4616 8.35759 18.4624 8.23819 18.5836L6.7001 20.1367C6.50809 20.3307 6.64644 20.6616 6.91923 20.6616Z" fill="#005428"/>
<path d="M5.86628 13.3727C4.93197 13.7982 4.11725 13.7435 4.07435 13.7492C3.9058 13.7492 3.76814 13.8848 3.76614 14.0538C3.76413 14.2239 3.90038 14.3636 4.07054 14.3656C4.71372 14.3791 5.45273 14.2383 6.12193 13.9338C6.27684 13.8631 6.34506 13.6805 6.27463 13.5256C6.2038 13.3707 6.02179 13.3025 5.86628 13.3727Z" fill="#005428"/>
<path d="M6.95189 9.05849C6.97938 8.89034 6.8658 8.73181 6.69785 8.70412C6.14181 8.61262 5.60825 8.38667 5.15475 8.05116C5.01789 7.94963 4.82526 7.97892 4.72352 8.11537C4.62239 8.25223 4.65108 8.44527 4.78793 8.5464C5.31969 8.9401 5.94556 9.20498 6.59752 9.31253C6.76405 9.33996 6.92402 9.22753 6.95189 9.05849Z" fill="#005428"/>
<path d="M10.0568 5.55483C10.2035 5.46854 10.2524 5.27952 10.1662 5.13263L8.86866 2.92975C8.78258 2.78286 8.59376 2.7347 8.44667 2.82059C8.29998 2.90727 8.25122 3.0959 8.33771 3.24278L9.6348 5.44567C9.72204 5.59341 9.91184 5.64038 10.0568 5.55483Z" fill="#005428"/>
<path d="M15.3749 4.14502C15.5445 4.13057 15.6703 3.98128 15.6557 3.81192L15.4853 1.81973C15.4709 1.64957 15.3208 1.51793 15.152 1.5388C14.9824 1.55325 14.8566 1.70254 14.8713 1.8719L15.0416 3.86409C15.0562 4.03529 15.2071 4.15993 15.3749 4.14502Z" fill="#005428"/>
<path d="M21.2448 5.30484C21.7466 4.69643 22.3107 4.13296 22.9211 3.6305C23.0526 3.52255 23.0714 3.3283 22.9633 3.19667C22.8551 3.06503 22.6609 3.04577 22.5294 3.15453C21.8883 3.68187 21.2961 4.27343 20.7692 4.91314C20.6608 5.04438 20.6795 5.23862 20.8109 5.34698C20.9418 5.45495 21.1369 5.43656 21.2448 5.30484Z" fill="#005428"/>
<path d="M27.3926 9.70742C27.3744 9.53806 27.2203 9.41767 27.0529 9.43412L24.3379 9.7291C24.1688 9.74756 24.0464 9.89966 24.0648 10.069C24.0832 10.2388 24.2361 10.3604 24.4046 10.3423L27.1195 10.0473C27.2887 10.0289 27.4111 9.87678 27.3926 9.70742Z" fill="#005428"/>
<path d="M26.636 16.9995C26.9507 16.9995 27.0621 16.5815 26.7903 16.4244L24.6577 15.1932C24.5106 15.1081 24.3216 15.1587 24.2367 15.3059C24.1516 15.4532 24.202 15.6419 24.3494 15.7269C26.573 16.9935 26.4821 16.9995 26.636 16.9995Z" fill="#005428"/>
<path d="M23.8515 21.0465C23.9067 21.0875 23.9711 21.1071 24.0351 21.1071C24.3309 21.1071 24.4574 20.7283 24.2191 20.5513C23.5389 20.0464 22.8653 19.5167 22.2169 18.9769C22.0857 18.8673 21.8917 18.8858 21.7827 19.0166C21.6739 19.1474 21.6916 19.3417 21.8224 19.4504C22.4796 19.9974 23.1623 20.5344 23.8515 21.0465Z" fill="#005428"/>
</svg>
