<svg width="31" height="30" viewBox="0 0 31 30" fill="none" xmlns="http://www.w3.org/2000/svg">
<path d="M5.26465 20.6831C5.60717 20.8065 5.77051 20.7479 6.43831 20.7479C7.28204 19.7301 8.00013 18.8448 8.84386 17.827C8.50804 17.8329 8.17624 17.7142 7.86995 17.5764C7.15347 18.7301 6.24582 19.7442 5.26465 20.6831Z" fill="#005428"/>
<path d="M14.4219 18.3426C14.4559 18.0372 14.4899 17.7317 14.5239 17.4263C14.509 17.5596 13.3661 17.793 13.2193 17.8271C12.7758 17.93 12.3251 18.0021 11.8716 18.0434C10.9459 18.1275 10.0081 18.0829 9.09511 17.9077C8.93505 17.877 8.39167 17.6387 8.37472 17.8735C8.36175 18.0532 8.26344 18.133 8.38618 18.2101C9.05585 18.6304 10.6192 18.8637 11.3867 18.8742C12.4197 18.8883 13.4563 18.7114 14.4219 18.3426Z" fill="#005428"/>
<path d="M18.8378 6.34477C17.4075 4.61267 15.3465 3.75665 13.1163 3.48768C10.8862 3.21872 8.51457 3.36313 6.62158 4.5725C9.25692 3.54903 12.2854 3.38621 14.8976 4.46737C17.5098 5.54853 19.614 7.96409 19.9916 10.7659C20.0834 11.4475 20.0667 12.1793 19.7176 12.7719C19.8366 12.5698 20.4776 12.6877 20.6426 12.4864C20.7707 12.3303 20.723 11.7826 20.7277 11.587C20.7432 10.9465 20.6785 10.3044 20.5409 9.67881C20.2604 8.40281 19.67 7.35258 18.8378 6.34477Z" fill="#005428"/>
<path d="M25.6372 26.4737C25.8086 26.6351 25.3424 26.6555 24.8115 26.6041C24.7473 26.5979 24.4862 26.45 24.1724 25.9844C23.8307 25.4772 23.1433 24.6216 22.9451 24.1041C22.8957 23.9751 23.1038 24.0367 23.0958 23.8987C23.0879 23.7607 23.373 23.7835 23.4785 23.6941C24.2599 24.6258 25.0059 25.4344 25.6372 26.4737Z" fill="#005428"/>
<path d="M23.6778 24.5313C21.6655 25.1272 19.7826 25.1522 17.9628 24.353C16.1431 23.5539 14.695 22.0434 14.2265 20.1118C14.0687 19.4612 13.9047 18.725 14.0871 18.0808C14.4379 19.9895 15.4766 21.892 17.1189 22.9258C18.024 23.4954 19.0999 23.8103 20.1431 24.0127C21.2138 24.2204 22.4745 24.0176 23.5202 23.7512C23.5246 24.0657 23.5886 24.3793 23.7078 24.6704" fill="#005428"/>
<path d="M28.8687 18.1259C29.0367 20.2091 27.9818 22.3252 26.1758 23.377C26.2401 23.0685 26.4091 22.8198 26.4116 22.5047C27.7927 21.1281 28.383 19.0075 27.9116 17.1153C27.4403 15.2231 24.9109 13.2071 23.0454 12.6393C23.6386 12.8198 24.9598 13.1448 25.5363 13.4135C26.1142 13.6828 26.8708 14.2427 27.3203 14.6926C28.2523 15.6254 28.7622 16.8065 28.8687 18.1259Z" fill="#005428"/>
<path d="M25.5737 26.6404C25.4561 26.6404 25.3421 26.5908 25.2606 26.4991C24.9604 26.1333 24.7377 25.7998 24.5017 25.4466C24.389 25.2775 24.2738 25.1051 24.1478 24.9261L24.0595 24.8013C23.9238 24.6085 23.7191 24.3171 23.5783 24.2081C23.5072 24.1525 23.3066 24.1963 23.1601 24.229C23.1087 24.2402 23.0594 24.2509 23.0132 24.2593C22.6179 24.3337 22.1977 24.3791 21.731 24.3974C20.8842 24.4271 20.0358 24.3396 19.2138 24.1383C16.6245 23.51 14.5986 21.5834 14.1736 19.344C14.0644 18.7724 14.0624 18.1788 14.1688 17.5808C14.4726 15.8182 15.6974 14.1515 17.3649 13.2324C18.0773 12.8409 18.8751 12.5688 19.7368 12.423C21.3621 12.1442 23.0858 12.3282 24.59 12.9425C26.1496 13.571 27.3315 14.5913 28.0069 15.8932C28.9785 17.7528 28.8184 19.9938 27.5992 21.6015C27.354 21.9234 27.0762 22.2238 26.7724 22.4963C26.3848 24.0243 26.1648 25.2199 25.985 26.2852C25.9818 26.4146 25.8743 26.5593 25.7149 26.6159C25.6688 26.6323 25.621 26.6404 25.5737 26.6404ZM25.3814 26.1712C25.377 26.1873 25.3742 26.2037 25.3734 26.2208C25.3762 26.2043 25.3786 26.1877 25.3814 26.1712ZM23.4651 23.566C23.6317 23.566 23.8046 23.6025 23.9563 23.7215C24.1698 23.8863 24.3882 24.1971 24.5639 24.4469L24.6498 24.5683C24.7811 24.7547 24.8986 24.9311 25.0142 25.1043C25.1599 25.3222 25.3004 25.5325 25.4545 25.743C25.6291 24.7345 25.847 23.6256 26.1985 22.2517C26.2142 22.1911 26.2475 22.1367 26.2949 22.0955C26.5959 21.8339 26.8696 21.5421 27.1083 21.2285C28.1839 19.8106 28.322 17.8278 27.4599 16.1778C26.8531 15.0077 25.7808 14.0869 24.3585 13.5138C22.9574 12.9419 21.3541 12.7703 19.8403 13.0308C19.8399 13.0308 19.8399 13.0308 19.8395 13.031C19.0461 13.165 18.3133 13.4144 17.6623 13.7724C16.1549 14.6032 15.0489 16.1031 14.776 17.687C14.6829 18.2123 14.6841 18.7304 14.7792 19.2287C15.16 21.2349 17.0009 22.967 19.3599 23.5393C20.1273 23.7273 20.9183 23.8088 21.7081 23.7813C22.1431 23.7643 22.5336 23.7223 22.9016 23.6531C22.943 23.6455 22.9847 23.6362 23.0281 23.6268C23.1509 23.5997 23.305 23.566 23.4651 23.566ZM19.7881 12.727H19.7922H19.7881Z" fill="#005428"/>
<path d="M5.42359 20.7968C5.36981 20.7968 5.31483 20.787 5.26185 20.7665C5.09008 20.7001 4.97891 20.5394 4.97891 20.357C4.80554 18.97 4.6105 17.3899 4.29345 15.5627C3.9455 15.213 3.62082 14.816 3.32745 14.3818C1.9493 12.2987 1.92763 9.51692 3.27006 7.29216C4.20997 5.73642 5.75267 4.56875 7.73122 3.91539C10.7067 2.9187 14.2139 3.2809 16.6656 4.84065C19.3817 6.56877 20.839 9.85102 20.131 12.6451C20.119 12.6978 20.1013 12.7574 20.0833 12.817C20.0331 12.9796 19.8605 13.0715 19.6984 13.0217C19.5354 12.9719 19.4439 12.7998 19.4933 12.6368C19.5074 12.5913 19.5214 12.5457 19.5322 12.5004C20.178 9.95015 18.8327 6.95023 16.3349 5.36077C14.0341 3.89693 10.7331 3.55982 7.92586 4.50033C6.08738 5.10734 4.66066 6.18289 3.79781 7.61081C2.57778 9.6329 2.59423 12.156 3.83995 14.0393C4.1285 14.4661 4.45077 14.855 4.79591 15.1927C4.84206 15.2378 4.87296 15.2962 4.8842 15.3598C5.18841 17.099 5.38185 18.6128 5.5484 19.9592C6.03561 19.4243 6.47747 18.8835 6.89204 18.37C6.95505 18.2927 7.01966 18.1986 7.08749 18.1005C7.25645 17.8559 7.44788 17.579 7.68306 17.4196C8.04305 17.1736 8.46966 17.2952 8.78189 17.3841C8.83808 17.4002 8.89185 17.4156 8.94242 17.4279C9.43846 17.5509 9.94092 17.6366 10.4378 17.6831C11.4294 17.7806 12.4292 17.7429 13.4088 17.5693C13.7294 17.5122 14.0581 17.4347 14.3856 17.3388C14.5498 17.2906 14.7203 17.3847 14.7681 17.5479C14.8158 17.7114 14.7223 17.8826 14.559 17.9303C14.2098 18.0325 13.8591 18.1153 13.5167 18.1761C12.4809 18.3602 11.4258 18.4003 10.3784 18.2967C9.85303 18.2476 9.32007 18.1567 8.79594 18.0267C8.73975 18.013 8.67755 17.9954 8.61253 17.9769C8.39621 17.9149 8.1506 17.8457 8.0302 17.9293C7.88934 18.0246 7.73282 18.251 7.59476 18.4509C7.51691 18.5632 7.44226 18.6706 7.37123 18.7581C6.87719 19.3701 6.34383 20.0215 5.74144 20.6578C5.65957 20.7479 5.54398 20.7968 5.42359 20.7968ZM5.59415 20.3357C5.59495 20.3443 5.59535 20.3521 5.59535 20.3568C5.59535 20.3495 5.59495 20.3425 5.59415 20.3357ZM5.29396 20.2336C5.29235 20.2354 5.29075 20.237 5.28914 20.2388C5.29075 20.237 5.29235 20.2354 5.29396 20.2336Z" fill="#005428"/>
<path d="M13.938 15.0261C13.8116 15.0261 13.6932 14.948 13.6482 14.8224C13.1759 13.5133 12.6156 12.1229 12.0738 10.7783C11.6143 9.63869 11.142 8.46662 10.7198 7.33507C9.81076 8.92774 9.15739 10.1377 8.46952 11.411C7.93174 12.406 7.37992 13.4274 6.6796 14.68C6.59693 14.8285 6.40911 14.8812 6.26022 14.7986C6.11173 14.7155 6.05875 14.5277 6.14182 14.379C6.84013 13.1296 7.39075 12.1107 7.92693 11.118C8.69707 9.69247 9.42428 8.34622 10.5139 6.45416C10.5737 6.35062 10.6836 6.28901 10.8085 6.30105C10.9281 6.31169 11.0304 6.39055 11.0709 6.50352C11.5433 7.81265 12.1035 9.20305 12.6453 10.5477C13.1895 11.8976 13.7522 13.2934 14.2278 14.6133C14.2856 14.7735 14.2029 14.9501 14.0423 15.0078C14.0078 15.0203 13.9725 15.0261 13.938 15.0261Z" fill="#005428"/>
<path d="M12.2941 11.4828C12.2909 11.4828 12.2877 11.4828 12.2845 11.4826L8.34268 11.3618C8.17252 11.3566 8.03888 11.2145 8.04409 11.0444C8.04971 10.8742 8.20543 10.7366 8.36194 10.7458L12.3038 10.8666C12.4739 10.8718 12.6076 11.0139 12.6024 11.184C12.5971 11.351 12.4603 11.4828 12.2941 11.4828Z" fill="#005428"/>
<path d="M23.7478 16.6898H18.1505C17.9803 16.6898 17.8423 16.5517 17.8423 16.3816C17.8423 16.2114 17.9803 16.0734 18.1505 16.0734H23.7478C23.918 16.0734 24.056 16.2114 24.056 16.3816C24.056 16.5517 23.918 16.6898 23.7478 16.6898Z" fill="#005428"/>
<path d="M19.4601 21.4646C19.3742 21.4646 19.2887 21.4289 19.2277 21.3589C19.1158 21.2306 19.1294 21.0358 19.2574 20.924C20.6219 19.7351 21.6686 18.2072 22.2838 16.506C22.342 16.3455 22.5194 16.2628 22.6783 16.321C22.8385 16.3788 22.9211 16.5556 22.8634 16.7155C22.2128 18.5153 21.1059 20.1312 19.6628 21.3888C19.6042 21.4397 19.5319 21.4646 19.4601 21.4646Z" fill="#005428"/>
<path d="M23.0295 21.3789C23.0171 21.3789 23.0047 21.3781 22.9918 21.3767C22.129 21.2713 21.2806 20.7657 20.6027 19.9532C20.0164 19.2502 19.6255 18.4289 19.2474 17.6345C19.174 17.4808 19.2394 17.297 19.3931 17.2237C19.5468 17.1507 19.731 17.2161 19.8037 17.3696C20.1657 18.1293 20.5397 18.9151 21.0763 19.5583C21.6534 20.25 22.3601 20.6784 23.0665 20.7647C23.2354 20.7853 23.3558 20.939 23.3349 21.108C23.3161 21.2643 23.1832 21.3789 23.0295 21.3789Z" fill="#005428"/>
<path d="M20.6884 16.4447C20.5371 16.4447 20.405 16.3335 20.3834 16.1794C20.3461 15.9121 20.3621 15.633 20.4307 15.3723C20.4745 15.2076 20.6454 15.1099 20.8072 15.1524C20.9717 15.1957 21.0704 15.3643 21.0271 15.5288C20.9789 15.7113 20.9677 15.9065 20.9942 16.0935C21.0179 16.2621 20.9003 16.418 20.7317 16.4417C20.7173 16.4437 20.7028 16.4447 20.6884 16.4447Z" fill="#005428"/>
<path d="M4.29354 15.5628C4.61059 17.39 4.80564 18.97 4.97901 20.357C4.97901 20.5394 5.09018 20.7001 5.26195 20.7666C5.31492 20.787 5.3699 20.7969 5.42368 20.7969C5.48621 20.7969 5.54679 20.7824 5.60267 20.7571C5.79461 20.7713 6.01506 20.7481 6.43811 20.7481C7.15859 19.8789 7.79164 19.102 8.48533 18.2611C9.19661 18.6481 10.652 18.8643 11.3866 18.8743C12.2785 18.8864 13.1703 18.7473 14.0196 18.4741C13.9723 19.0143 14.0997 19.5903 14.2262 20.112C14.6946 22.0435 16.1427 23.554 17.9625 24.3532C19.6485 25.0936 21.3901 25.12 23.2372 24.6468C23.5286 25.1072 23.9335 25.6301 24.1723 25.9845C24.4861 26.4501 24.7472 26.598 24.8114 26.6042C25.0712 26.6294 25.3145 26.6369 25.4761 26.6195C25.5433 26.6361 25.5903 26.6604 25.7152 26.6159C26.1369 26.4661 25.8579 26.2972 26.6302 23.0743C29.6848 20.826 29.8729 15.7168 25.718 13.5059C24.3401 12.6696 22.5693 12.2069 20.7067 12.3171C20.7502 12.0882 20.7239 11.7361 20.7276 11.5871C20.7787 9.47932 20.0588 7.82361 18.8377 6.34488C17.1781 4.33513 14.7641 3.56165 12.163 3.40147C8.76012 3.11969 5.03667 4.36827 3.27016 7.29221C1.77454 9.77082 1.84607 13.1026 4.29354 15.5628ZM24.3587 13.5138C28.0888 15.0168 28.9217 18.8383 27.1086 21.2285C26.8698 21.5421 26.5961 21.8339 26.2951 22.0956C26.2477 22.1367 26.2144 22.1911 26.1988 22.2517C25.8472 23.6256 25.6293 24.7345 25.4547 25.743C25.0117 25.138 24.3439 24.0204 23.9566 23.7215C23.8049 23.6025 23.6319 23.566 23.4653 23.566C23.08 23.566 21.5875 24.0851 19.3602 23.5393C16.5766 22.8641 14.2824 20.473 14.7762 17.687C15.1373 15.5912 16.9147 13.5252 19.8398 13.031C19.8402 13.0308 19.8402 13.0308 19.8406 13.0308C21.3544 12.7703 22.9577 12.9419 24.3587 13.5138ZM3.79791 7.61087C6.15397 3.71185 12.5068 2.92524 16.335 5.36083C18.8212 6.94286 20.1639 9.92188 19.5397 12.4644C16.539 13.0475 14.6857 15.1706 14.216 17.3837C12.5355 17.8427 10.6413 17.8492 8.94252 17.4279C8.89195 17.4157 8.83817 17.4002 8.78199 17.3842C8.46975 17.2953 8.04314 17.1737 7.68315 17.4197C7.23354 17.7243 7.21119 18.1336 5.54849 19.9593C5.38194 18.6128 5.1885 17.099 4.8843 15.3599C4.87306 15.2963 4.84216 15.2379 4.79601 15.1927C2.52414 12.9697 2.40657 9.91686 3.79791 7.61087Z" fill="#005428"/>
<path d="M6.26022 14.7987C6.40911 14.8813 6.59693 14.8286 6.6796 14.6801C7.37992 13.4275 7.93174 12.4062 8.46952 11.4111C8.47757 11.3962 8.48555 11.3814 8.4936 11.3665L12.2845 11.4827C12.2877 11.4829 12.2909 11.4829 12.2942 11.4829C12.3148 11.4829 12.333 11.4753 12.3525 11.4714C12.8045 12.5964 13.2565 13.7369 13.6482 14.8226C13.6932 14.9482 13.8116 15.0262 13.938 15.0262C13.9725 15.0262 14.0078 15.0204 14.0423 15.008C14.2029 14.9502 14.2856 14.7736 14.2278 14.6135C13.7522 13.2935 13.1895 11.8977 12.6453 10.5478C12.1035 9.20317 11.5433 7.81278 11.0709 6.50365C11.0304 6.39067 10.9281 6.31181 10.8085 6.30118C10.6836 6.28914 10.5737 6.35074 10.5139 6.45428C9.42428 8.34634 8.69707 9.69259 7.92693 11.1181C7.39075 12.1108 6.84013 13.1298 6.14182 14.3791C6.05875 14.5278 6.11173 14.7156 6.26022 14.7987ZM10.7198 7.3352C11.142 8.46674 11.6143 9.63881 12.0738 10.7784C12.0848 10.8056 12.0959 10.8333 12.1069 10.8606L8.82161 10.76C9.38891 9.71193 9.96645 8.65506 10.7198 7.3352Z" fill="#005428"/>
<path d="M18.1505 16.0735C17.9803 16.0735 17.8423 16.2115 17.8423 16.3817C17.8423 16.5518 17.9803 16.6899 18.1505 16.6899H22.2106C21.8649 17.5926 21.3969 18.4427 20.8243 19.2175C20.4199 18.6467 20.1047 18.0016 19.8036 17.3697C19.7309 17.2162 19.5467 17.1508 19.393 17.2239C19.2393 17.2971 19.1739 17.4809 19.2473 17.6346C19.585 18.3443 19.941 19.0707 20.4293 19.7197C20.0702 20.1494 19.6812 20.5548 19.2574 20.9241C19.0426 21.1116 19.1772 21.4647 19.46 21.4647C19.5319 21.4647 19.6041 21.4398 19.6627 21.3888C20.0819 21.0235 20.4689 20.6249 20.8284 20.2034C21.4644 20.8684 22.2218 21.2828 22.9917 21.3768C23.0046 21.3782 23.017 21.379 23.0294 21.379C23.1831 21.379 23.316 21.2644 23.3348 21.1081C23.3557 20.9391 23.2353 20.7854 23.0664 20.7648C22.4175 20.6855 21.7695 20.3146 21.2208 19.7191C22.0832 18.5874 22.7248 17.2229 22.8671 16.6899H23.7478C23.918 16.6899 24.056 16.5518 24.056 16.3817C24.056 16.2115 23.918 16.0735 23.7478 16.0735H20.9931C20.9701 15.8925 20.9804 15.7048 21.0268 15.5288C21.0702 15.3643 20.9714 15.1957 20.8069 15.1524C20.6452 15.1099 20.4742 15.2076 20.4304 15.3723C20.3708 15.599 20.3586 15.8388 20.3789 16.0735H18.1505Z" fill="#005428"/>
</svg>
