<svg width="104" height="78" viewBox="0 0 104 78" fill="none" xmlns="http://www.w3.org/2000/svg">
<g clip-path="url(#clip0_502_1499)">
<path d="M5.13841 46.9319H9.02881C11.1111 46.9319 12.7494 45.8102 12.7494 43.7314C12.7494 41.653 11.2473 40.5641 9.37081 40.5641H5.13841V46.9319ZM8.27851 37.1334C8.99521 37.1334 9.64351 37.1 10.2582 36.9353C11.2473 36.5722 11.8965 35.6483 11.8965 34.3285C11.8965 32.3489 10.4964 31.2933 8.41501 31.2933H5.13841V37.1334H8.27851ZM18.1416 44.0618C18.1416 48.6148 14.319 50.9901 8.79031 50.9901H0.120605V27.2351H8.07391C13.2954 27.2351 17.22 29.4457 17.22 33.8996C17.22 36.1433 15.8211 37.7928 14.0808 38.519C16.2651 39.2115 18.1416 41.3563 18.1416 44.0618Z" fill="#1A1919"/>
<path d="M22.3076 50.0992V45.2165C24.0134 46.0743 26.2664 46.8002 28.4852 46.9318C29.2694 46.9652 30.0203 46.9318 30.6695 46.8002C32.546 46.5363 33.6383 45.8429 33.6383 44.6887C33.6383 43.105 32.1704 42.2799 28.7921 41.0918C24.4919 39.5745 21.9653 37.8261 21.9653 33.7014C21.9653 29.4784 25.5839 26.773 30.8735 26.773C33.3314 26.773 35.7551 27.3008 37.2902 27.9612V32.6455C35.8571 31.8211 33.5363 31.1944 31.2833 31.1944C28.7576 31.1944 27.1196 32.1511 27.1196 33.6687C27.1196 35.0546 28.451 36.011 31.7951 37.2319C36.0962 38.8486 38.7578 40.5973 38.7578 44.5895C38.7578 48.8786 35.4137 51.4523 29.6108 51.4523C26.8127 51.4523 24.0821 50.8584 22.3076 50.0992Z" fill="#1A1919"/>
<path d="M62.3447 33.075C60.8768 32.3491 58.5563 31.4252 55.5524 31.4252C50.57 31.4252 47.4296 34.8895 47.4296 39.1125C47.4296 43.3688 50.5358 46.8001 55.3817 46.8001C58.5563 46.8001 60.98 45.9092 62.5151 45.1503V49.8686C61.2524 50.5281 58.4534 51.4523 55.0064 51.4523C47.6003 51.4523 42.1736 46.0743 42.1736 39.1125C42.1736 32.1841 47.6003 26.773 55.1768 26.773C58.6241 26.773 61.082 27.7631 62.3447 28.4225V33.075Z" fill="#1A1919"/>
<path d="M33.455 59.6416C34.0814 59.6416 34.451 59.3003 34.451 58.7493C34.451 58.276 34.1138 57.8569 33.455 57.8569H31.8176V59.6416H33.455ZM33.4238 57.2827C34.0256 57.2827 34.3463 56.9257 34.3463 56.4525C34.3463 55.987 34.0256 55.6147 33.4238 55.6147H31.8176V57.2827H33.4238ZM31.1519 55.0402H33.5354C34.4669 55.0402 35.0363 55.5833 35.0363 56.3597C35.0363 57.011 34.5872 57.4457 34.0973 57.5466C34.6676 57.6319 35.1413 58.1986 35.1413 58.8194C35.1413 59.6497 34.5707 60.2158 33.5924 60.2158H31.1519V55.0402Z" fill="#1A1919"/>
<path d="M36.5893 58.1054H39.1336C39.1258 57.5465 38.7403 56.8561 37.8571 56.8561C37.0306 56.8561 36.6208 57.5312 36.5893 58.1054ZM37.8649 56.3747C39.0376 56.3747 39.7276 57.2594 39.7276 58.3844V58.5323H36.5893C36.6373 59.2384 37.1512 59.8277 37.9855 59.8277C38.4277 59.8277 38.8768 59.6572 39.1816 59.3544L39.4708 59.7349C39.0856 60.1072 38.5639 60.3094 37.9297 60.3094C36.7816 60.3094 35.9551 59.5098 35.9551 58.338C35.9551 57.2519 36.7579 56.3747 37.8649 56.3747Z" fill="#1A1919"/>
<path d="M40.7012 56.468H41.303V57.0733C41.6159 56.6777 42.0659 56.3903 42.5954 56.3903V56.9877C42.5237 56.9723 42.4511 56.9645 42.3551 56.9645C41.9855 56.9645 41.4797 57.2594 41.303 57.5622V60.216H40.7012V56.468Z" fill="#1A1919"/>
<path d="M45.7757 58.7185C45.5423 58.4082 45.1334 58.2527 44.708 58.2527C44.1461 58.2527 43.7519 58.5944 43.7519 59.0752C43.7519 59.5487 44.1461 59.8898 44.708 59.8898C45.1334 59.8898 45.5423 59.7349 45.7757 59.4246V58.7185ZM45.7757 59.7889C45.4541 60.1305 45.0131 60.3091 44.4914 60.3091C43.8323 60.3091 43.1345 59.8822 43.1345 59.0676C43.1345 58.2292 43.8323 57.8337 44.4914 57.8337C45.0206 57.8337 45.4619 57.9967 45.7757 58.3461V57.6707C45.7757 57.1664 45.3578 56.8793 44.7962 56.8793C44.3306 56.8793 43.9529 57.0423 43.6079 57.3993L43.3274 56.9956C43.7444 56.5765 44.2424 56.3747 44.8766 56.3747C45.6953 56.3747 46.3775 56.732 46.3775 57.6394V60.216H45.7757V59.7889Z" fill="#1A1919"/>
<path d="M47.7043 59.4322V56.9802H47.062V56.4681H47.7043V55.4435H48.3061V56.4681H49.0927V56.9802H48.3061V59.308C48.3061 59.5876 48.4348 59.7889 48.6994 59.7889C48.868 59.7889 49.0288 59.7193 49.1092 59.634L49.2856 60.0684C49.1329 60.2082 48.916 60.3091 48.5629 60.3091C47.9935 60.3091 47.7043 59.9907 47.7043 59.4322Z" fill="#1A1919"/>
<path d="M52.5622 59.6885C52.2652 60.0141 51.7591 60.3093 51.1816 60.3093C50.3707 60.3093 49.9453 59.9289 49.9453 59.1143V56.468H50.5474V58.9356C50.5474 59.5951 50.8927 59.7891 51.4141 59.7891C51.8875 59.7891 52.3375 59.5255 52.5622 59.2227V56.468H53.1643V60.216H52.5622V59.6885Z" fill="#1A1919"/>
<path d="M56.987 57.7637C56.987 57.1045 56.642 56.8945 56.12 56.8945C55.6466 56.8945 55.1966 57.1741 54.9719 57.4769V60.2159H54.3701V56.4679H54.9719V57.0111C55.2455 56.7005 55.775 56.3746 56.3525 56.3746C57.1634 56.3746 57.5888 56.7704 57.5888 57.5853V60.2159H56.987V57.7637Z" fill="#1A1919"/>
<path d="M61.5968 57.5001C61.3889 57.1742 60.9233 56.8946 60.4418 56.8946C59.6624 56.8946 59.1968 57.492 59.1968 58.3229C59.1968 59.145 59.6624 59.75 60.4418 59.75C60.9233 59.75 61.3889 59.4634 61.5968 59.1375V57.5001ZM59.0927 60.7432C59.4143 61.1159 59.7986 61.2556 60.3527 61.2556C60.9947 61.2556 61.5968 60.9532 61.5968 60.1304V59.5951C61.3163 59.9753 60.8426 60.2624 60.2966 60.2624C59.285 60.2624 58.571 59.533 58.571 58.3229C58.571 57.1197 59.2772 56.3747 60.2966 56.3747C60.8183 56.3747 61.2839 56.6232 61.5968 57.0344V56.468H62.1998V60.1072C62.1998 61.3487 61.3007 61.7365 60.3527 61.7365C59.6948 61.7365 59.2457 61.6123 58.7879 61.1785L59.0927 60.7432Z" fill="#1A1919"/>
<path d="M38.0315 13.5089C38.0315 13.5089 68.3753 0.158209 77.0936 27.0627C77.0936 27.0627 72.1661 16.9811 38.0315 13.5089Z" fill="#006D34"/>
<path d="M67.0897 11.763C67.0897 11.763 97.1125 13.2632 92.6863 39.4838C88.2598 65.7045 59.5146 77.6649 59.5146 77.6649C59.5146 77.6649 98.9674 33.4921 67.0897 11.763Z" fill="#349954"/>
<path d="M85.7888 15.5784C85.7888 15.5784 95.3753 12.0051 100.37 15.6686C105.365 19.3316 104.716 38.6146 99.4184 49.7433C99.4184 49.7433 96.0548 21.5223 85.7888 15.5784Z" fill="#76BD76"/>
<path d="M94.3484 31.6218C94.3484 31.6218 98.0438 44.9867 97.712 52.3321C97.3796 59.6772 80.8079 77.277 80.8079 77.277C81.0062 77.2028 97.2851 45.7865 94.3484 31.6218Z" fill="#8CBB8E"/>
<path d="M83.3348 0.734791C79.7453 0.779161 76.2539 3.72411 76.4294 6.99734C76.6202 10.5545 81.0632 13.0441 84.7529 12.4406C87.4016 12.0077 90.2678 9.88139 90.4283 6.99937C90.617 3.59999 86.9567 0.690131 83.3348 0.734791Z" fill="#297C45"/>
</g>
<defs>
<clipPath id="clip0_502_1499">
<rect width="104" height="78" fill="white"/>
</clipPath>
</defs>
</svg>
