<svg width="20" height="26" viewBox="0 0 20 26" fill="none" xmlns="http://www.w3.org/2000/svg">
<path d="M6.7999 14.5992C6.7999 15.4829 6.08356 16.1992 5.1999 16.1992C4.31625 16.1992 3.5999 15.4829 3.5999 14.5992C3.5999 13.7156 4.31625 12.9992 5.1999 12.9992C6.08356 12.9992 6.7999 13.7156 6.7999 14.5992ZM6.7999 19.3992C6.7999 20.2829 6.08356 20.9992 5.1999 20.9992C4.31625 20.9992 3.5999 20.2829 3.5999 19.3992C3.5999 18.5156 4.31625 17.7992 5.1999 17.7992C6.08356 17.7992 6.7999 18.5156 6.7999 19.3992ZM14.7999 16.1992C15.6836 16.1992 16.3999 15.4829 16.3999 14.5992C16.3999 13.7156 15.6836 12.9992 14.7999 12.9992C13.9162 12.9992 13.1999 13.7156 13.1999 14.5992C13.1999 15.4829 13.9162 16.1992 14.7999 16.1992ZM16.3999 19.3992C16.3999 20.2829 15.6836 20.9992 14.7999 20.9992C13.9162 20.9992 13.1999 20.2829 13.1999 19.3992C13.1999 18.5156 13.9162 17.7992 14.7999 17.7992C15.6836 17.7992 16.3999 18.5156 16.3999 19.3992ZM9.9999 16.1992C10.8836 16.1992 11.5999 15.4829 11.5999 14.5992C11.5999 13.7156 10.8836 12.9992 9.9999 12.9992C9.11625 12.9992 8.3999 13.7156 8.3999 14.5992C8.3999 15.4829 9.11625 16.1992 9.9999 16.1992ZM11.5999 19.3992C11.5999 20.2829 10.8836 20.9992 9.9999 20.9992C9.11625 20.9992 8.3999 20.2829 8.3999 19.3992C8.3999 18.5156 9.11625 17.7992 9.9999 17.7992C10.8836 17.7992 11.5999 18.5156 11.5999 19.3992ZM5.9999 3.39922C4.67442 3.39922 3.5999 4.47374 3.5999 5.79922V7.39922C3.5999 8.7247 4.67442 9.79922 5.9999 9.79922H13.9999C15.3254 9.79922 16.3999 8.7247 16.3999 7.39922V5.79922C16.3999 4.47374 15.3254 3.39922 13.9999 3.39922H5.9999ZM5.1999 5.79922C5.1999 5.35739 5.55807 4.99922 5.9999 4.99922H13.9999C14.4417 4.99922 14.7999 5.35739 14.7999 5.79922V7.39922C14.7999 7.84105 14.4417 8.19922 13.9999 8.19922H5.9999C5.55807 8.19922 5.1999 7.84105 5.1999 7.39922V5.79922ZM19.5999 21.7992C19.5999 24.0084 17.809 25.7992 15.5999 25.7992H4.3999C2.19076 25.7992 0.399902 24.0084 0.399902 21.7992V4.19922C0.399902 1.99008 2.19076 0.199219 4.3999 0.199219H15.5999C17.809 0.199219 19.5999 1.99008 19.5999 4.19922V21.7992ZM17.9999 4.19922C17.9999 2.87374 16.9254 1.79922 15.5999 1.79922H4.3999C3.07442 1.79922 1.9999 2.87374 1.9999 4.19922V21.7992C1.9999 23.1247 3.07442 24.1992 4.3999 24.1992H15.5999C16.9254 24.1992 17.9999 23.1247 17.9999 21.7992V4.19922Z" fill="#005428"/>
</svg>
